<svg width="134" height="40" viewBox="0 0 134 40" fill="none" xmlns="http://www.w3.org/2000/svg">
<g clip-path="url(#clip0_4632_17631)">
<path d="M20.6637 19.1721C20.6906 16.8081 21.9397 14.6187 23.9545 13.3695C22.6785 11.5428 20.61 10.4279 18.3803 10.3608C16.0297 10.119 13.7597 11.7577 12.5643 11.7577C11.3689 11.7577 9.50184 10.3742 7.52736 10.4145C4.92159 10.4951 2.54415 11.9457 1.28156 14.2291C-1.41824 18.9034 0.596534 25.7805 3.18888 29.5549C4.47834 31.4085 5.99613 33.477 7.97061 33.3964C9.9048 33.3158 10.6301 32.1606 12.9673 32.1606C15.3044 32.1606 15.9626 33.3964 17.9773 33.3561C20.0593 33.3158 21.3622 31.5025 22.6113 29.622C23.5381 28.3057 24.2634 26.8416 24.7335 25.297C22.2621 24.2493 20.6637 21.8316 20.6503 19.1586L20.6637 19.1721Z" fill="white"/>
<path d="M16.8478 7.87576C17.9761 6.51914 18.5402 4.75957 18.4059 3C16.6732 3.18805 15.0748 4.00739 13.9197 5.32371C12.7914 6.61316 12.2138 8.30558 12.3213 10.0249C14.0809 10.0383 15.7464 9.25924 16.8478 7.88919V7.87576Z" fill="white"/>
<path d="M43.899 28.9105H37.5457L36.0145 33.4236H33.3281L39.3456 16.7412H42.1394L48.1569 33.4236H45.4168L43.8856 28.9105H43.899ZM38.2039 26.8285H43.2408L40.7559 19.5082H40.6888L38.2039 26.8285Z" fill="white"/>
<path d="M61.1722 27.3383C61.1722 31.1127 59.144 33.5438 56.095 33.5438C54.5234 33.6244 53.0325 32.8051 52.2669 31.4216H52.2132V37.4391H49.7148V21.2537H52.1326V23.2819H52.1729C52.9653 21.9119 54.4563 21.0791 56.0412 21.1328C59.1306 21.1328 61.1588 23.5774 61.1588 27.3383H61.1722ZM58.6067 27.3383C58.6067 24.8803 57.3307 23.2551 55.3965 23.2551C53.4623 23.2551 52.1997 24.9072 52.1997 27.3383C52.1997 29.7695 53.4892 31.435 55.3965 31.435C57.3038 31.435 58.6067 29.8232 58.6067 27.3383Z" fill="white"/>
<path d="M74.5511 27.3383C74.5511 31.1127 72.5229 33.5438 69.4739 33.5438C67.9023 33.6244 66.4114 32.8051 65.6458 31.4216H65.5921V37.4391H63.0938V21.2537H65.5115V23.2819H65.5518C66.3443 21.9119 67.8352 21.0791 69.4201 21.1328C72.5095 21.1328 74.5377 23.5774 74.5377 27.3383H74.5511ZM71.9856 27.3383C71.9856 24.8803 70.7096 23.2551 68.7754 23.2551C66.8412 23.2551 65.5786 24.9072 65.5786 27.3383C65.5786 29.7695 66.8681 31.435 68.7754 31.435C70.6827 31.435 71.9856 29.8232 71.9856 27.3383Z" fill="white"/>
<path d="M83.4036 28.776C83.5917 30.4281 85.1901 31.5161 87.3929 31.5161C89.5957 31.5161 91.006 30.4281 91.006 28.9372C91.006 27.6477 90.0927 26.8687 87.9301 26.3314L85.7676 25.8075C82.7052 25.0688 81.2814 23.6316 81.2814 21.3079C81.2814 18.4335 83.7931 16.459 87.3526 16.459C90.912 16.459 93.2894 18.4335 93.37 21.3079H90.8449C90.6971 19.6423 89.3136 18.6349 87.3123 18.6349C85.3109 18.6349 83.9275 19.6558 83.9275 21.1333C83.9275 22.3153 84.8005 23.0003 86.9496 23.5376L88.7898 23.9942C92.2149 24.8002 93.6387 26.1836 93.6387 28.6148C93.6387 31.731 91.1538 33.692 87.2048 33.692C83.5111 33.692 81.0127 31.7847 80.8516 28.7625H83.4036V28.776Z" fill="white"/>
<path d="M99.0367 18.3799V21.2543H101.347V23.2288H99.0367V29.9313C99.0367 30.9789 99.4934 31.4625 100.514 31.4625C100.783 31.4625 101.065 31.4356 101.334 31.4088V33.3698C100.877 33.4504 100.407 33.4907 99.9501 33.4907C97.492 33.4907 96.525 32.5639 96.525 30.2133V23.2422H94.752V21.2677H96.525V18.3933H99.0367V18.3799Z" fill="white"/>
<path d="M102.678 27.3388C102.678 23.5107 104.934 21.1064 108.44 21.1064C111.946 21.1064 114.202 23.5107 114.202 27.3388C114.202 31.1669 111.973 33.5712 108.44 33.5712C104.907 33.5712 102.678 31.1803 102.678 27.3388ZM111.677 27.3388C111.677 24.7196 110.468 23.1615 108.453 23.1615C106.439 23.1615 105.23 24.7196 105.23 27.3388C105.23 29.958 106.439 31.5161 108.453 31.5161C110.468 31.5161 111.677 29.9849 111.677 27.3388Z" fill="white"/>
<path d="M116.283 21.2543H118.661V23.3228H118.714C119.05 21.993 120.272 21.0796 121.643 21.1199C121.925 21.1199 122.22 21.1468 122.502 21.214V23.5511C122.139 23.4436 121.763 23.3899 121.387 23.4033C120.004 23.3496 118.822 24.4242 118.768 25.8211C118.768 25.9554 118.768 26.0763 118.782 26.2106V33.4235H116.283V21.2677V21.2543Z" fill="white"/>
<path d="M133.999 29.8506C133.663 32.0534 131.514 33.5712 128.761 33.5712C125.228 33.5712 123.025 31.2072 123.025 27.3925C123.025 23.5779 125.228 21.1064 128.653 21.1064C132.078 21.1064 134.134 23.4167 134.134 27.1105V27.9701H125.551V28.1179C125.403 29.864 126.679 31.3952 128.425 31.5564C128.559 31.5564 128.694 31.5698 128.815 31.5564C130.023 31.6639 131.165 30.9788 131.622 29.8506H133.986H133.999ZM125.564 26.224H131.649C131.743 24.6122 130.507 23.2287 128.895 23.1481C128.815 23.1481 128.747 23.1481 128.667 23.1481C126.961 23.1481 125.577 24.5047 125.564 26.2105C125.564 26.2105 125.564 26.224 125.564 26.2374V26.224Z" fill="white"/>
<path d="M37.8935 4.18238C39.8411 4.04806 41.5469 5.51213 41.6812 7.45975C41.6947 7.68809 41.6812 7.92986 41.6678 8.1582C41.6678 10.7237 40.2843 12.1878 37.8935 12.1878H34.9922V4.16895H37.8935V4.18238ZM36.2413 11.0595H37.7457C39.1292 11.1401 40.3246 10.079 40.4052 8.69548C40.4052 8.52086 40.4052 8.34625 40.3784 8.17163C40.5664 6.78815 39.5993 5.51213 38.2158 5.32408C38.0546 5.29722 37.8935 5.29722 37.7323 5.31065H36.2279V11.0595H36.2413Z" fill="white"/>
<path d="M43.0635 9.16579C42.9158 7.59426 44.0709 6.19735 45.6424 6.03617C47.2139 5.88842 48.6109 7.04356 48.772 8.61508C48.7855 8.80313 48.7855 8.97774 48.772 9.16579C48.9198 10.7373 47.7781 12.1477 46.1931 12.2954C44.6216 12.4432 43.2113 11.3015 43.0635 9.7165C43.0501 9.52845 43.0501 9.3404 43.0635 9.16579ZM47.5363 9.16579C47.5363 7.84947 46.9453 7.08385 45.9111 7.08385C44.8768 7.08385 44.2858 7.84947 44.2858 9.16579C44.2858 10.4821 44.8634 11.2477 45.9111 11.2477C46.9453 11.2477 47.5363 10.4821 47.5363 9.16579Z" fill="white"/>
<path d="M56.3487 12.2011H55.113L53.8638 7.7417H53.7698L52.5207 12.2011H51.2984L49.6328 6.15674H50.8417L51.9297 10.7773H52.0237L53.2728 6.15674H54.4145L55.6637 10.7773H55.7577L56.8323 6.15674H58.0277L56.3622 12.2011H56.3487Z" fill="white"/>
<path d="M59.4102 6.14363H60.5653V7.11072H60.6593C60.9682 6.39883 61.6936 5.96901 62.4592 6.03617C63.5472 5.95558 64.4874 6.76149 64.568 7.84947C64.568 7.99722 64.568 8.14497 64.5546 8.27929V12.188H63.3591V8.57479C63.3591 7.6077 62.9427 7.12415 62.0562 7.12415C61.2906 7.08386 60.6459 7.67486 60.6056 8.44047C60.6056 8.50763 60.6056 8.58822 60.6056 8.65538V12.188H59.4102V6.14363Z" fill="white"/>
<path d="M66.4492 3.79297H67.6447V12.2013H66.4492V3.79297Z" fill="white"/>
<path d="M69.3116 9.16579C69.1638 7.59426 70.3189 6.19735 71.8905 6.03617C73.462 5.88842 74.8589 7.04356 75.0201 8.61508C75.0335 8.80313 75.0335 8.97774 75.0201 9.16579C75.1678 10.7373 74.0261 12.1477 72.4412 12.2954C70.8562 12.4432 69.4593 11.3015 69.3116 9.7165C69.2981 9.52845 69.2981 9.3404 69.3116 9.16579ZM73.7844 9.16579C73.7844 7.84947 73.1934 7.08385 72.1591 7.08385C71.1249 7.08385 70.5339 7.84947 70.5339 9.16579C70.5339 10.4821 71.1114 11.2477 72.1591 11.2477C73.1934 11.2477 73.7844 10.4821 73.7844 9.16579Z" fill="white"/>
<path d="M76.2695 10.4821C76.2695 9.39409 77.0754 8.7628 78.5126 8.68221L80.1513 8.58818V8.06434C80.1513 7.41961 79.7349 7.07039 78.9156 7.07039C78.244 7.07039 77.7873 7.31216 77.653 7.74198H76.4979C76.6188 6.70773 77.5993 6.03613 78.9693 6.03613C80.4871 6.03613 81.3468 6.78832 81.3468 8.06434V12.2013H80.1916V11.3551H80.0976C79.7081 11.973 79.0096 12.3357 78.2843 12.3088C77.2769 12.4163 76.377 11.6775 76.283 10.6835C76.283 10.6298 76.283 10.5627 76.283 10.4955L76.2695 10.4821ZM80.1513 9.97166V9.46125L78.6738 9.55527C77.8411 9.609 77.465 9.89107 77.465 10.4283C77.465 10.9656 77.9351 11.288 78.5798 11.288C79.3589 11.3686 80.0573 10.791 80.1379 10.012C80.1379 9.99853 80.1379 9.98509 80.1379 9.95823L80.1513 9.97166Z" fill="white"/>
<path d="M82.916 9.1657C82.916 7.25838 83.8965 6.04952 85.4278 6.04952C86.1934 6.00922 86.9187 6.42561 87.2814 7.11063H87.3754V3.79297H88.5708V12.2013H87.4291V11.2476H87.3351C86.9456 11.9192 86.2203 12.3356 85.4412 12.3088C83.8965 12.3088 82.9295 11.0999 82.9295 9.17914L82.916 9.1657ZM84.1517 9.1657C84.1517 10.4552 84.7562 11.2208 85.7636 11.2208C86.771 11.2208 87.3888 10.4417 87.3888 9.1657C87.3888 7.88968 86.7575 7.11063 85.7636 7.11063C84.7696 7.11063 84.1517 7.88968 84.1517 9.1657Z" fill="white"/>
<path d="M93.501 9.16548C93.3533 7.59396 94.5084 6.19704 96.0799 6.03586C97.6514 5.87468 99.0484 7.04325 99.2095 8.61478C99.223 8.80282 99.223 8.97743 99.2095 9.16548C99.3573 10.737 98.2156 12.1473 96.6306 12.2951C95.0591 12.4429 93.6488 11.3011 93.501 9.71619C93.4876 9.52814 93.4876 9.34009 93.501 9.16548ZM97.9738 9.16548C97.9738 7.84916 97.3828 7.08355 96.3486 7.08355C95.3143 7.08355 94.7233 7.84916 94.7233 9.16548C94.7233 10.4818 95.3009 11.2474 96.3486 11.2474C97.3828 11.2474 97.9738 10.4818 97.9738 9.16548Z" fill="white"/>
<path d="M100.809 6.14363H101.964V7.11072H102.058C102.367 6.39883 103.092 5.96901 103.858 6.03617C104.946 5.95558 105.886 6.76149 105.966 7.84947C105.966 7.99722 105.966 8.14497 105.953 8.27929V12.188H104.758V8.57479C104.758 7.6077 104.341 7.12415 103.455 7.12415C102.689 7.08386 102.044 7.67486 102.004 8.44047C102.004 8.50763 102.004 8.58822 102.004 8.65538V12.188H100.809V6.14363Z" fill="white"/>
<path d="M112.694 4.63916V6.17039H114.011V7.17778H112.694V10.294C112.694 10.9253 112.949 11.2073 113.554 11.2073C113.702 11.2073 113.863 11.2073 114.011 11.1805V12.1744C113.796 12.2147 113.581 12.2281 113.366 12.2416C112.036 12.2416 111.512 11.7715 111.512 10.6029V7.19121H110.559V6.18382H111.512V4.65259H112.708L112.694 4.63916Z" fill="white"/>
<path d="M115.623 3.79297H116.805V7.12407H116.899C117.221 6.41218 117.96 5.98236 118.739 6.03609C119.841 5.98236 120.781 6.81513 120.835 7.91654C120.835 8.03743 120.835 8.17175 120.821 8.29264V12.2013H119.626V8.58814C119.626 7.62104 119.182 7.1375 118.336 7.1375C117.557 7.07034 116.872 7.64791 116.818 8.42695C116.818 8.50755 116.818 8.58814 116.818 8.66873V12.2013H115.623V3.79297Z" fill="white"/>
<path d="M127.791 10.5627C127.456 11.7044 126.354 12.4431 125.172 12.3088C123.654 12.3491 122.392 11.1537 122.352 9.63587C122.352 9.48812 122.352 9.34037 122.378 9.19262C122.177 7.66139 123.251 6.26447 124.769 6.063C124.904 6.04957 125.038 6.03613 125.159 6.03613C126.838 6.03613 127.859 7.19127 127.859 9.08516V9.50155H123.587V9.56871C123.507 10.4552 124.165 11.2208 125.051 11.3014C125.105 11.3014 125.159 11.3014 125.199 11.3014C125.777 11.3686 126.354 11.0865 126.636 10.5627H127.791ZM123.587 8.61505H126.636C126.69 7.80914 126.099 7.11068 125.293 7.05695C125.239 7.05695 125.199 7.05695 125.145 7.05695C124.286 7.05695 123.587 7.72855 123.574 8.58818C123.574 8.58818 123.574 8.61505 123.574 8.62848L123.587 8.61505Z" fill="white"/>
</g>
<defs>
<clipPath id="clip0_4632_17631">
<rect width="134" height="40" fill="white"/>
</clipPath>
</defs>
</svg>
