<svg width="96" height="26" viewBox="0 0 96 26" fill="none" xmlns="http://www.w3.org/2000/svg">
<path d="M14.7886 12.2498C14.8079 10.5579 15.7019 8.99099 17.1438 8.09699C16.2306 6.78963 14.7502 5.99176 13.1544 5.94369C11.4722 5.77066 9.84759 6.94344 8.99204 6.94344C8.13649 6.94344 6.8003 5.95331 5.3872 5.98214C3.52229 6.03982 1.8208 7.07802 0.917187 8.71221C-1.01501 12.0575 0.426928 16.9793 2.28222 19.6806C3.20506 21.0071 4.29132 22.4875 5.70442 22.4299C7.08868 22.3722 7.60778 21.5455 9.28043 21.5455C10.9531 21.5455 11.4241 22.4299 12.866 22.401C14.3561 22.3722 15.2885 21.0744 16.1825 19.7286C16.8458 18.7866 17.3649 17.7387 17.7013 16.6333C15.9326 15.8835 14.7886 14.1531 14.779 12.2402L14.7886 12.2498Z" fill="#EFEEDF"/>
<path d="M12.0572 4.16527C12.8647 3.19437 13.2685 1.93507 13.1723 0.675781C11.9323 0.810362 10.7883 1.39675 9.96162 2.33882C9.15414 3.26166 8.74078 4.47289 8.81769 5.70334C10.077 5.71295 11.269 5.1554 12.0572 4.17488V4.16527Z" fill="#EFEEDF"/>
<path d="M31.4189 19.221H26.872L25.7761 22.451H23.8535L28.1601 10.5117H30.1596L34.4662 22.451H32.5051L31.4093 19.221H31.4189ZM27.343 17.731H30.9479L29.1695 12.492H29.1214L27.343 17.731Z" fill="#EFEEDF"/>
<path d="M43.7819 18.0958C43.7819 20.797 42.3303 22.5369 40.1482 22.5369C39.0235 22.5946 37.9564 22.0082 37.4085 21.0181H37.37V25.3247H35.582V13.7411H37.3124V15.1927H37.3412C37.9084 14.2121 38.9754 13.6161 40.1097 13.6546C42.3207 13.6546 43.7722 15.4041 43.7722 18.0958H43.7819ZM41.9458 18.0958C41.9458 16.3366 41.0326 15.1734 39.6483 15.1734C38.264 15.1734 37.3604 16.3558 37.3604 18.0958C37.3604 19.8357 38.2833 21.0277 39.6483 21.0277C41.0133 21.0277 41.9458 19.8741 41.9458 18.0958Z" fill="#EFEEDF"/>
<path d="M53.3561 18.0958C53.3561 20.797 51.9045 22.5369 49.7224 22.5369C48.5977 22.5946 47.5306 22.0082 46.9827 21.0181H46.9443V25.3247H45.1562V13.7411H46.8866V15.1927H46.9154C47.4826 14.2121 48.5496 13.6161 49.6839 13.6546C51.8949 13.6546 53.3465 15.4041 53.3465 18.0958H53.3561ZM51.52 18.0958C51.52 16.3366 50.6068 15.1734 49.2225 15.1734C47.8383 15.1734 46.9346 16.3558 46.9346 18.0958C46.9346 19.8357 47.8575 21.0277 49.2225 21.0277C50.5876 21.0277 51.52 19.8741 51.52 18.0958Z" fill="#EFEEDF"/>
<path d="M59.6917 19.1246C59.8263 20.307 60.9702 21.0857 62.5467 21.0857C64.1232 21.0857 65.1326 20.307 65.1326 19.24C65.1326 18.3171 64.4789 17.7596 62.9312 17.3751L61.3836 17.0002C59.1918 16.4715 58.1728 15.4429 58.1728 13.7798C58.1728 11.7227 59.9705 10.3096 62.5179 10.3096C65.0653 10.3096 66.7668 11.7227 66.8245 13.7798H65.0173C64.9115 12.5878 63.9214 11.8669 62.4891 11.8669C61.0567 11.8669 60.0666 12.5974 60.0666 13.6549C60.0666 14.5008 60.6914 14.9911 62.2295 15.3756L63.5465 15.7024C65.9978 16.2792 67.0167 17.2693 67.0167 19.0093C67.0167 21.2395 65.2383 22.6429 62.4121 22.6429C59.7686 22.6429 57.9806 21.2779 57.8652 19.115H59.6917V19.1246Z" fill="#EFEEDF"/>
<path d="M70.881 11.6851V13.7422H72.5344V15.1553H70.881V19.9522C70.881 20.702 71.2078 21.048 71.9384 21.048C72.1306 21.048 72.3325 21.0288 72.5248 21.0096V22.4131C72.1979 22.4708 71.8615 22.4996 71.5346 22.4996C69.7755 22.4996 69.0834 21.8363 69.0834 20.154V15.1649H67.8145V13.7518H69.0834V11.6947H70.881V11.6851Z" fill="#EFEEDF"/>
<path d="M73.4883 18.0956C73.4883 15.356 75.1033 13.6353 77.6122 13.6353C80.1212 13.6353 81.7362 15.356 81.7362 18.0956C81.7362 20.8353 80.1404 22.556 77.6122 22.556C75.084 22.556 73.4883 20.8449 73.4883 18.0956ZM79.9289 18.0956C79.9289 16.2211 79.0638 15.106 77.6218 15.106C76.1799 15.106 75.3147 16.2211 75.3147 18.0956C75.3147 19.9702 76.1799 21.0853 77.6218 21.0853C79.0638 21.0853 79.9289 19.9894 79.9289 18.0956Z" fill="#EFEEDF"/>
<path d="M83.2246 13.7421H84.9261V15.2225H84.9645C85.2049 14.2708 86.0796 13.6171 87.0602 13.6459C87.262 13.6459 87.4735 13.6652 87.6754 13.7132V15.3859C87.4158 15.309 87.1467 15.2705 86.8775 15.2801C85.8874 15.2417 85.0415 16.0107 85.003 17.0105C85.003 17.1066 85.003 17.1931 85.0126 17.2892V22.4514H83.2246V13.7517V13.7421Z" fill="#EFEEDF"/>
<path d="M95.9045 19.8933C95.6642 21.4698 94.1262 22.556 92.1555 22.556C89.6273 22.556 88.0508 20.8642 88.0508 18.1341C88.0508 15.404 89.6273 13.6353 92.0786 13.6353C94.5299 13.6353 96.0007 15.2887 96.0007 17.9322V18.5475H89.858V18.6532C89.7523 19.9029 90.6655 20.9988 91.9152 21.1141C92.0113 21.1141 92.1074 21.1237 92.1939 21.1141C93.0591 21.191 93.8762 20.7008 94.2031 19.8933H95.8949H95.9045ZM89.8676 17.2978H94.2223C94.2896 16.1442 93.4052 15.1541 92.2516 15.0964C92.194 15.0964 92.1459 15.0964 92.0882 15.0964C90.8674 15.0964 89.8772 16.0673 89.8676 17.2882C89.8676 17.2882 89.8676 17.2978 89.8676 17.3074V17.2978Z" fill="#EFEEDF"/>
<path d="M27.1213 1.52231C28.5152 1.42618 29.736 2.47399 29.8322 3.86786C29.8418 4.03128 29.8322 4.20431 29.8225 4.36773C29.8225 6.2038 28.8324 7.25161 27.1213 7.25161H25.0449V1.5127H27.1213V1.52231ZM25.9389 6.44412H27.0156C28.0057 6.5018 28.8613 5.74238 28.9189 4.75225C28.9189 4.62728 28.9189 4.50231 28.8997 4.37735C29.0343 3.38721 28.3422 2.47399 27.352 2.33941C27.2367 2.32018 27.1213 2.32018 27.006 2.32979H25.9293V6.44412H25.9389Z" fill="#EFEEDF"/>
<path d="M30.8216 5.08828C30.7159 3.96357 31.5426 2.96382 32.6673 2.84847C33.792 2.74273 34.7917 3.56944 34.9071 4.69415C34.9167 4.82873 34.9167 4.9537 34.9071 5.08828C35.0128 6.21299 34.1957 7.22235 33.0614 7.32809C31.9367 7.43383 30.9274 6.61673 30.8216 5.48241C30.812 5.34783 30.812 5.21325 30.8216 5.08828ZM34.0227 5.08828C34.0227 4.14621 33.5997 3.59828 32.8596 3.59828C32.1194 3.59828 31.6964 4.14621 31.6964 5.08828C31.6964 6.03035 32.1097 6.57828 32.8596 6.57828C33.5997 6.57828 34.0227 6.03035 34.0227 5.08828Z" fill="#EFEEDF"/>
<path d="M40.3299 7.26087H39.4455L38.5515 4.06938H38.4842L37.5902 7.26087H36.7154L35.5234 2.93506H36.3886L37.1672 6.2419H37.2345L38.1285 2.93506H38.9456L39.8396 6.2419H39.9069L40.676 2.93506H41.5315L40.3395 7.26087H40.3299Z" fill="#EFEEDF"/>
<path d="M42.5195 2.92557H43.3462V3.6177H43.4135C43.6346 3.10822 44.1537 2.80061 44.7017 2.84867C45.4803 2.79099 46.1532 3.36777 46.2109 4.14641C46.2109 4.25216 46.2109 4.3579 46.2013 4.45403V7.25139H45.3457V4.66551C45.3457 3.97338 45.0477 3.62732 44.4133 3.62732C43.8653 3.59848 43.4039 4.02145 43.3751 4.56938C43.3751 4.61745 43.3751 4.67513 43.3751 4.72319V7.25139H42.5195V2.92557Z" fill="#EFEEDF"/>
<path d="M47.5566 1.24316H48.4122V7.26085H47.5566V1.24316Z" fill="#EFEEDF"/>
<path d="M49.6087 5.08828C49.503 3.96357 50.3297 2.96382 51.4544 2.84847C52.5791 2.74273 53.5789 3.56944 53.6942 4.69415C53.7038 4.82873 53.7038 4.9537 53.6942 5.08828C53.8 6.21299 52.9829 7.22235 51.8485 7.32809C50.7142 7.43383 49.7145 6.61673 49.6087 5.48241C49.5991 5.34783 49.5991 5.21325 49.6087 5.08828ZM52.8098 5.08828C52.8098 4.14621 52.3869 3.59828 51.6467 3.59828C50.9065 3.59828 50.4835 4.14621 50.4835 5.08828C50.4835 6.03035 50.8969 6.57828 51.6467 6.57828C52.3869 6.57828 52.8098 6.03035 52.8098 5.08828Z" fill="#EFEEDF"/>
<path d="M54.5859 6.03002C54.5859 5.25138 55.1627 4.79957 56.1913 4.74189L57.3641 4.6746V4.2997C57.3641 3.83828 57.0661 3.58834 56.4797 3.58834C55.999 3.58834 55.6722 3.76137 55.5761 4.06899H54.7494C54.8359 3.32879 55.5376 2.84814 56.5181 2.84814C57.6044 2.84814 58.2196 3.38647 58.2196 4.2997V7.26048H57.3929V6.65486H57.3256C57.0468 7.09706 56.547 7.3566 56.0279 7.33738C55.3069 7.41428 54.6628 6.88557 54.5956 6.17422C54.5956 6.13576 54.5956 6.0877 54.5956 6.03964L54.5859 6.03002ZM57.3641 5.66473V5.29944L56.3067 5.36673C55.7107 5.40518 55.4415 5.60705 55.4415 5.99157C55.4415 6.37609 55.7779 6.6068 56.2394 6.6068C56.7969 6.66448 57.2968 6.25112 57.3545 5.69357C57.3545 5.68396 57.3545 5.67434 57.3545 5.65512L57.3641 5.66473Z" fill="#EFEEDF"/>
<path d="M59.3457 5.08833C59.3457 3.7233 60.0474 2.85814 61.1433 2.85814C61.6913 2.8293 62.2104 3.1273 62.4699 3.61756H62.5372V1.24316H63.3927V7.26085H62.5756V6.57834H62.5084C62.2296 7.05898 61.7105 7.35698 61.1529 7.33776C60.0475 7.33776 59.3553 6.47259 59.3553 5.09795L59.3457 5.08833ZM60.2301 5.08833C60.2301 6.01117 60.6627 6.55911 61.3836 6.55911C62.1046 6.55911 62.5468 6.00156 62.5468 5.08833C62.5468 4.17511 62.095 3.61756 61.3836 3.61756C60.6723 3.61756 60.2301 4.17511 60.2301 5.08833Z" fill="#EFEEDF"/>
<path d="M66.9173 5.08834C66.8116 3.96363 67.6383 2.96389 68.763 2.84853C69.8877 2.73317 70.8875 3.5695 71.0028 4.69421C71.0124 4.82879 71.0124 4.95376 71.0028 5.08834C71.1086 6.21305 70.2914 7.22241 69.1571 7.32815C68.0324 7.43389 67.0231 6.6168 66.9173 5.48247C66.9077 5.34789 66.9077 5.21331 66.9173 5.08834ZM70.1184 5.08834C70.1184 4.14627 69.6954 3.59834 68.9553 3.59834C68.2151 3.59834 67.7921 4.14627 67.7921 5.08834C67.7921 6.03041 68.2054 6.57834 68.9553 6.57834C69.6954 6.57834 70.1184 6.03041 70.1184 5.08834Z" fill="#EFEEDF"/>
<path d="M72.1484 2.92557H72.9751V3.6177H73.0424C73.2635 3.10822 73.7826 2.80061 74.3306 2.84867C75.1092 2.79099 75.7821 3.36777 75.8398 4.14641C75.8398 4.25216 75.8398 4.3579 75.8302 4.45403V7.25139H74.9746V4.66551C74.9746 3.97338 74.6766 3.62732 74.0422 3.62732C73.4942 3.59848 73.0328 4.02145 73.004 4.56938C73.004 4.61745 73.004 4.67513 73.004 4.72319V7.25139H72.1484V2.92557Z" fill="#EFEEDF"/>
<path d="M80.6554 1.84912V2.94499H81.5975V3.66596H80.6554V5.89616C80.6554 6.34797 80.8381 6.54984 81.2706 6.54984C81.3764 6.54984 81.4917 6.54984 81.5975 6.53061V7.24197C81.4437 7.27081 81.2899 7.28042 81.1361 7.29004C80.1844 7.29004 79.8095 6.95358 79.8095 6.11726V3.67558H79.127V2.95461H79.8095V1.85873H80.665L80.6554 1.84912Z" fill="#EFEEDF"/>
<path d="M82.752 1.24316H83.5979V3.62717H83.6652C83.8959 3.11768 84.4246 2.81007 84.9822 2.84852C85.7704 2.81007 86.4433 3.40607 86.4818 4.19433C86.4818 4.28085 86.4818 4.37698 86.4722 4.46349V7.26085H85.6166V4.67498C85.6166 3.98285 85.2994 3.63678 84.6938 3.63678C84.1362 3.58872 83.646 4.00207 83.6075 4.55962C83.6075 4.6173 83.6075 4.67498 83.6075 4.73266V7.26085H82.752V1.24316Z" fill="#EFEEDF"/>
<path d="M91.4596 6.0877C91.2193 6.9048 90.4311 7.43351 89.5851 7.33738C88.4989 7.36622 87.5952 6.51067 87.5664 5.42441C87.5664 5.31867 87.5664 5.21292 87.5856 5.10718C87.4414 4.01131 88.2105 3.01156 89.2967 2.86737C89.3929 2.85776 89.489 2.84814 89.5755 2.84814C90.7771 2.84814 91.5077 3.67486 91.5077 5.03028V5.32828H88.4508V5.37634C88.3931 6.0108 88.8642 6.55873 89.4986 6.61641C89.5371 6.61641 89.5755 6.61641 89.6043 6.61641C90.0177 6.66447 90.4311 6.4626 90.6329 6.0877H91.4596ZM88.4508 4.69383H90.6329C90.6714 4.11705 90.2484 3.61718 89.6716 3.57873C89.6332 3.57873 89.6043 3.57873 89.5659 3.57873C88.9507 3.57873 88.4508 4.05937 88.4412 4.6746C88.4412 4.6746 88.4412 4.69383 88.4412 4.70344L88.4508 4.69383Z" fill="#EFEEDF"/>
</svg>
