<svg width="20" height="20" viewBox="0 0 20 20" fill="none" xmlns="http://www.w3.org/2000/svg">
<g clip-path="url(#clip0_4518_5153)">
<path d="M9.58035 12.8878L10.7614 11.2495H8.88281L9.58035 12.8878Z" stroke="#21211D" stroke-width="0.841627" stroke-linecap="square" stroke-linejoin="round"/>
<path d="M8.76268 9.82861L6.08594 10.64L6.7388 12.7945C6.84139 13.1302 8.02588 13.2515 9.58342 12.9997L9.06113 11.2742" fill="#A8A7A1"/>
<mask id="mask0_4518_5153" style="mask-type:luminance" maskUnits="userSpaceOnUse" x="6" y="9" width="4" height="5">
<path d="M8.76268 9.82764L6.08594 10.6391L6.7388 12.7935C6.84139 13.1293 8.02588 13.2505 9.58342 12.9987L9.06113 11.2733" fill="white"/>
</mask>
<g mask="url(#mask0_4518_5153)">
<path d="M6.83175 9.37018L4.66797 10.023L6.17888 14.9941L8.79967 14.2014L7.27943 9.17432L6.83175 9.37018Z" fill="white"/>
</g>
<path d="M8.76268 9.82861L6.08594 10.64L6.7388 12.7945C6.84139 13.1302 8.02588 13.2515 9.58342 12.9997L9.06113 11.2742" stroke="#21211D" stroke-width="0.841627" stroke-linecap="square" stroke-linejoin="round"/>
<path d="M8.92762 10.1552C6.6799 10.836 4.5068 10.2298 4.07778 8.80279C3.9099 8.25252 4.03114 7.66495 4.35757 7.10535C2.35235 7.43178 0.981334 7.41313 0.841434 6.95612C0.608268 6.18201 3.99383 4.46591 8.40533 3.1322C8.40533 3.1322 8.75042 5.6877 8.6758 6.21932C8.6758 6.21932 9.70173 7.5437 9.81365 7.77687C9.92557 8.01003 8.61984 9.81007 8.61984 9.81007" fill="white"/>
<mask id="mask1_4518_5153" style="mask-type:luminance" maskUnits="userSpaceOnUse" x="0" y="3" width="10" height="8">
<path d="M8.92372 10.1542C6.676 10.835 4.50289 10.2288 4.07387 8.80182C3.90599 8.25155 4.02724 7.66397 4.35367 7.10437C2.34844 7.4308 0.977427 7.41215 0.837528 6.95514C0.604362 6.18103 3.98993 4.46493 8.40143 3.13123C8.40143 3.13123 8.74651 5.68672 8.6719 6.21834C8.6719 6.21834 9.69783 7.54272 9.80975 7.77589C9.92167 8.00905 8.61594 9.80909 8.61594 9.80909" fill="white"/>
</mask>
<g mask="url(#mask1_4518_5153)">
<path d="M4.92361 2.05898C4.92361 2.05898 7.06873 10.826 10.846 13.1204L1.75417 9.97646L-0.605469 4.10068L4.92361 2.05898Z" fill="#A8A7A1"/>
</g>
<path d="M8.92762 10.1552C6.67991 10.836 4.5068 10.2298 4.07778 8.8028C3.9099 8.25252 4.03114 7.66495 4.35757 7.10535C2.35235 7.43178 0.981334 7.41313 0.841434 6.95612C0.608268 6.18201 3.99383 4.46591 8.40533 3.1322C8.40533 3.1322 8.75042 5.6877 8.6758 6.21932C8.6758 6.21932 9.70173 7.5437 9.81365 7.77687C9.92557 8.01003 8.61984 9.81007 8.61984 9.81007" stroke="#21211D" stroke-width="0.841627" stroke-linejoin="round"/>
<path d="M10.8473 11.1543C10.381 11.2942 9.91466 11.3968 9.45765 11.4714C5.74565 12.031 2.20153 10.2962 0.839844 6.95728C0.87715 7.00391 0.839844 7.16247 1.34348 7.26506C1.83779 7.33035 2.4347 7.33967 3.24611 7.26506C4.07619 7.18112 5.05548 7.00391 6.10006 6.77075C6.39852 6.70546 7.35916 7.53553 7.35916 7.53553L7.49906 8.87857L8.74883 10.1283L10.8473 11.1636V11.1543Z" fill="white"/>
<path d="M10.8473 11.1543C10.381 11.2942 9.91466 11.3968 9.45765 11.4714C5.74565 12.031 2.20153 10.2962 0.839844 6.95728C0.87715 7.00391 0.839844 7.16247 1.34348 7.26506C1.83779 7.33035 2.4347 7.33967 3.24612 7.26506C4.07619 7.18112 5.05548 7.00391 6.10006 6.77075C6.39852 6.70546 7.35916 7.53553 7.35916 7.53553L7.49906 8.87857L8.74883 10.1283L10.8473 11.1636V11.1543Z" stroke="#21211D" stroke-width="0.841627" stroke-linecap="square" stroke-linejoin="round"/>
<path d="M12.7405 15.2376C15.0801 15.0317 16.8707 13.6593 16.7371 12.1753C16.6878 11.6021 16.3563 11.102 15.8449 10.7044C17.8273 10.26 19.0926 9.73179 19.0521 9.25557C19.0116 8.77935 17.7625 8.49702 15.8504 8.39052L15.273 10.4315L12.3389 11.5595L11.5862 13.289L12.8854 14.7974" fill="#A8A7A1"/>
<path d="M12.7405 15.2376C15.0801 15.0317 16.8707 13.6593 16.7371 12.1753C16.6878 11.6021 16.3563 11.102 15.8449 10.7044C17.8273 10.26 19.0926 9.73179 19.0521 9.25557C19.0116 8.77935 17.7625 8.49702 15.8504 8.39052L15.273 10.4315L12.3389 11.5595L11.5862 13.289L12.8854 14.7974" stroke="#21211D" stroke-width="0.841627" stroke-linejoin="round"/>
<path d="M11.3302 16.8812C11.8151 16.8373 12.2861 16.7587 12.738 16.6576C16.3911 15.7936 19.0335 12.8631 19.0528 9.2572C19.0356 9.31437 19.1293 9.4476 18.7002 9.73049C18.2658 9.97528 17.7153 10.2064 16.9346 10.4395C16.133 10.671 15.1582 10.8715 14.102 11.0444C13.8007 11.095 13.2186 12.2233 13.2186 12.2233L13.5893 13.5217L12.8952 15.1472L11.3337 16.8899L11.3302 16.8812Z" fill="white"/>
<mask id="mask2_4518_5153" style="mask-type:luminance" maskUnits="userSpaceOnUse" x="11" y="9" width="9" height="8">
<path d="M11.3341 16.8822C11.819 16.8382 12.29 16.7597 12.7419 16.6586C16.395 15.7946 19.0374 12.864 19.0567 9.25817C19.0395 9.31535 19.1332 9.44858 18.7041 9.73147C18.2697 9.97626 17.7193 10.2074 16.9385 10.4405C16.1369 10.6719 15.1621 10.8724 14.1059 11.0453C13.8046 11.096 13.2225 12.2242 13.2225 12.2242L13.5932 13.5227L12.8991 15.1481L11.3376 16.8909L11.3341 16.8822Z" fill="white"/>
</mask>
<g mask="url(#mask2_4518_5153)">
<path d="M17.3964 8.70928C17.3964 8.70928 18.2556 12.8002 14.6854 15.9993L19.7719 14.5495L19.6859 7.37778L17.3964 8.70928Z" fill="#A8A7A1"/>
</g>
<path d="M11.3302 16.8812C11.8151 16.8373 12.2861 16.7587 12.738 16.6576C16.3911 15.7936 19.0335 12.8631 19.0528 9.2572C19.0356 9.31437 19.1293 9.4476 18.7002 9.73049C18.2658 9.97528 17.7153 10.2064 16.9346 10.4395C16.133 10.671 15.1582 10.8715 14.102 11.0444C13.8007 11.095 13.2186 12.2233 13.2186 12.2233L13.5893 13.5217L12.8952 15.1472L11.3337 16.8899L11.3302 16.8812Z" stroke="#21211D" stroke-width="0.841627" stroke-linecap="square" stroke-linejoin="round"/>
<path d="M10.6602 1.6665C10.6602 1.6665 14.5862 1.6665 16.394 2.36923L14.8223 7.18094H13.5271L11.22 9.03861L10.6602 1.6665Z" fill="white" stroke="#21211D" stroke-width="0.841627" stroke-linejoin="round"/>
<path d="M10.5773 14.9775L9.24887 17.9727L7.38182 17.2303L2.46708 16.4112L8.53925 14.5217L10.5773 14.9775Z" fill="white" stroke="#21211D" stroke-width="0.841627" stroke-linejoin="round"/>
</g>
<defs>
<clipPath id="clip0_4518_5153">
<rect width="19.9991" height="19.9991" fill="white" transform="translate(-0.00195312 0.000488281)"/>
</clipPath>
</defs>
</svg>
