<svg width="20" height="20" viewBox="0 0 20 20" fill="none" xmlns="http://www.w3.org/2000/svg">
<g clip-path="url(#clip0_4836_9933)">
<path d="M5.23664 13.46V15.8894C5.23664 16.4036 7.37377 17.1294 9.99478 17.1294C12.6158 17.1294 14.7529 16.4036 14.7529 15.8894V13.46H5.22656H5.23664Z" fill="white"/>
<mask id="mask0_4836_9933" style="mask-type:luminance" maskUnits="userSpaceOnUse" x="5" y="13" width="10" height="5">
<path d="M5.24055 13.46V15.8894C5.24055 16.4036 7.37768 17.1294 9.99869 17.1294C12.6197 17.1294 14.7568 16.4036 14.7568 15.8894V13.46H5.23047H5.24055Z" fill="white"/>
</mask>
<g mask="url(#mask0_4836_9933)">
<path d="M12.707 12.2303V18.6215H16.3764V11.7363L12.707 12.2303Z" fill="#A8A7A1"/>
<path d="M6.40635 12.3712H3.9668V17.9862H6.92048V12.3208L6.40635 12.3712Z" fill="white"/>
</g>
<path d="M5.23664 13.46V15.8894C5.23664 16.4036 7.37377 17.1294 9.99478 17.1294C12.6158 17.1294 14.7529 16.4036 14.7529 15.8894V13.46H5.22656H5.23664Z" stroke="#21211D" stroke-width="0.841781" stroke-linecap="square" stroke-linejoin="round"/>
<path d="M9.99335 9.57895C14.9818 9.57895 19.0258 8.87036 19.0258 7.99626C19.0258 7.12217 14.9818 6.41357 9.99335 6.41357C5.00488 6.41357 0.960938 7.12217 0.960938 7.99626C0.960938 8.87036 5.00488 9.57895 9.99335 9.57895Z" fill="#21211D" stroke="#21211D" stroke-width="0.841781" stroke-miterlimit="10"/>
<path d="M10.4982 3.78015C6.19843 2.49776 2.38898 2.58262 1.97409 3.95931C1.97409 3.97816 1.97409 4.00645 1.97409 4.02531C1.68178 5.41142 4.79346 7.51417 9.01781 8.7777C13.2422 10.0412 17.127 9.97522 17.5419 8.59854C17.9568 7.22186 14.8074 5.06254 10.5076 3.78015H10.4982Z" fill="white"/>
<mask id="mask1_4836_9933" style="mask-type:luminance" maskUnits="userSpaceOnUse" x="1" y="2" width="17" height="8">
<path d="M10.4982 3.78064C6.19843 2.49825 2.38898 2.58311 1.97409 3.95979C1.97409 3.97865 1.97409 4.00694 1.97409 4.0258C1.68178 5.41191 4.79346 7.51466 9.01781 8.77819C13.2422 10.0417 17.127 9.97571 17.5419 8.59903C17.9568 7.22235 14.8074 5.06303 10.5076 3.78064H10.4982Z" fill="white"/>
</mask>
<g mask="url(#mask1_4836_9933)">
<path d="M10.4599 2.92857C10.4599 2.92857 4.70417 5.64972 10.0285 15.0696L1.01172 8.23729C1.01172 8.23729 2.03952 0.533514 2.27525 0.608949C2.51098 0.684384 13.5716 2.92857 13.5716 2.92857H10.4599Z" fill="#A8A7A1"/>
</g>
<path d="M10.4982 3.78015C6.19843 2.49776 2.38898 2.58262 1.97409 3.95931C1.97409 3.97816 1.97409 4.00645 1.97409 4.02531C1.68178 5.41142 4.79346 7.51417 9.01781 8.7777C13.2422 10.0412 17.127 9.97522 17.5419 8.59854C17.9568 7.22186 14.8074 5.06254 10.5076 3.78015H10.4982Z" stroke="#21211D" stroke-width="0.841781" stroke-linecap="square" stroke-linejoin="round"/>
<path d="M9.00429 8.77924C4.77995 7.51571 1.66826 5.41297 1.96057 4.02686C1.22509 7.87403 3.76158 11.5232 7.82563 12.7396C11.8897 13.956 16.0574 12.2681 17.5284 8.60952C17.1135 9.9862 13.3041 10.0711 9.00429 8.78867V8.77924Z" fill="white"/>
<mask id="mask2_4836_9933" style="mask-type:luminance" maskUnits="userSpaceOnUse" x="1" y="4" width="17" height="10">
<path d="M9.0082 8.78168C4.78385 7.51815 1.67217 5.41541 1.96448 4.0293C1.22899 7.87647 3.76549 11.5256 7.82953 12.742C11.8936 13.9584 16.0613 12.2705 17.5323 8.61196C17.1174 9.98864 13.308 10.0735 9.0082 8.79111V8.78168Z" fill="white"/>
</mask>
<g mask="url(#mask2_4836_9933)">
<path d="M3.60092 3.7744C3.60092 3.7744 2.50712 8.48907 4.2704 10.7993L0.1875 8.85681L1.67734 2.04883L3.60092 3.76497V3.7744Z" fill="white"/>
<path d="M14.7817 7.80908C14.7817 7.80908 14.3102 11.7034 10.3876 13.3441C7.59656 14.5133 18.9589 11.4299 19.6378 9.25177C19.8453 8.59172 14.7817 7.80908 14.7817 7.80908Z" fill="white"/>
</g>
<path d="M9.00429 8.77924C4.77995 7.51571 1.66826 5.41297 1.96057 4.02686C1.22509 7.87403 3.76158 11.5232 7.82563 12.7396C11.8897 13.956 16.0574 12.2681 17.5284 8.60952C17.1135 9.9862 13.3041 10.0711 9.00429 8.78867V8.77924Z" stroke="#21211D" stroke-width="0.841781" stroke-linecap="square" stroke-linejoin="round"/>
<path d="M18.5959 8.47997C18.112 8.70175 17.4063 8.91345 16.5394 9.08482C14.8055 9.41749 12.4466 9.57878 9.99694 9.57878C7.5473 9.57878 5.10774 9.40741 3.36376 9.07474C2.49681 8.90337 1.88188 8.71183 1.398 8.47997C0.914125 8.20779 0.994771 8.05658 0.974609 7.99609C1.37784 12.3611 5.26903 15.4861 10.007 15.4861C14.745 15.4861 18.6362 12.3611 19.0394 7.99609C19.0394 8.11706 18.8076 8.38924 18.6059 8.47997H18.5959Z" fill="white"/>
<mask id="mask3_4836_9933" style="mask-type:luminance" maskUnits="userSpaceOnUse" x="0" y="7" width="20" height="9">
<path d="M18.5959 8.48144C18.112 8.70321 17.4063 8.91491 16.5394 9.08629C14.8055 9.41895 12.4466 9.58025 9.99694 9.58025C7.5473 9.58025 5.10774 9.40887 3.36376 9.07621C2.49681 8.90483 1.88188 8.7133 1.398 8.48144C0.914125 8.20926 0.994771 8.05804 0.974609 7.99756C1.37784 12.3625 5.26903 15.4876 10.007 15.4876C14.745 15.4876 18.6362 12.3625 19.0394 7.99756C19.0394 8.11853 18.8076 8.39071 18.6059 8.48144H18.5959Z" fill="white"/>
</mask>
<g mask="url(#mask3_4836_9933)">
<path d="M2.70569 7.24175C2.70569 7.24175 3.03835 12.6148 5.65936 14.5201L0.699606 13.754L0.125 6.02197L2.71577 7.24175H2.70569Z" fill="white"/>
<path d="M15.9097 7.99871C15.9097 7.99871 16.6456 12.3032 12.9863 15.2972C10.3753 17.4243 21.5146 10.529 21.5449 7.99871C21.555 7.23257 15.9097 7.99871 15.9097 7.99871Z" fill="#A8A7A1"/>
</g>
<path d="M18.5959 8.47997C18.112 8.70175 17.4063 8.91345 16.5394 9.08482C14.8055 9.41749 12.4466 9.57878 9.99694 9.57878C7.5473 9.57878 5.10774 9.40741 3.36376 9.07474C2.49681 8.90337 1.88188 8.71183 1.398 8.47997C0.914125 8.20779 0.994771 8.05658 0.974609 7.99609C1.37784 12.3611 5.26903 15.4861 10.007 15.4861C14.745 15.4861 18.6362 12.3611 19.0394 7.99609C19.0394 8.11706 18.8076 8.38924 18.6059 8.47997H18.5959Z" stroke="#21211D" stroke-width="0.841781" stroke-linecap="square" stroke-linejoin="round"/>
</g>
<defs>
<clipPath id="clip0_4836_9933">
<rect width="19.9991" height="19.9991" fill="white" transform="translate(0 0.000488281)"/>
</clipPath>
</defs>
</svg>
