<svg width="20" height="20" viewBox="0 0 20 20" fill="none" xmlns="http://www.w3.org/2000/svg">
<g clip-path="url(#clip0_4836_9864)">
<path d="M5.01562 14.9014V17.3244C5.01562 17.8371 7.14705 18.561 9.76106 18.561C12.3751 18.561 14.5065 17.8371 14.5065 17.3244V14.9014H5.01562Z" fill="white"/>
<mask id="mask0_4836_9864" style="mask-type:luminance" maskUnits="userSpaceOnUse" x="5" y="14" width="10" height="5">
<path d="M5.02344 14.9033V17.3263C5.02344 17.8391 7.15486 18.5629 9.76887 18.5629C12.3829 18.5629 14.5143 17.8391 14.5143 17.3263V14.9033H5.02344Z" fill="white"/>
</mask>
<g mask="url(#mask0_4836_9864)">
<path d="M12.4668 13.6772V20.0413H16.1365V13.1846L12.4668 13.6772Z" fill="#A8A7A1"/>
<path d="M6.18304 13.8076H3.75V19.4177H6.70585V13.7573L6.18304 13.8076Z" fill="white"/>
</g>
<path d="M5.01562 14.9014V17.3244C5.01562 17.8371 7.14705 18.561 9.76106 18.561C12.3751 18.561 14.5065 17.8371 14.5065 17.3244V14.9014H5.01562Z" stroke="#21211D" stroke-width="0.841781" stroke-linecap="square" stroke-linejoin="round"/>
<path d="M9.77402 11.2682C14.7503 11.2682 18.7844 10.5347 18.7844 9.62994C18.7844 8.72517 14.7503 7.9917 9.77402 7.9917C4.79774 7.9917 0.763672 8.72517 0.763672 9.62994C0.763672 10.5347 4.79774 11.2682 9.77402 11.2682Z" fill="#21211D" stroke="#21211D" stroke-width="0.841781" stroke-miterlimit="10"/>
<path d="M10.3063 3.59984C5.77475 2.76812 1.87389 3.3028 1.61189 4.78802C1.61189 4.80782 1.61189 4.83753 1.61189 4.85733C1.46634 6.33265 4.89172 8.16442 9.35539 8.98625C13.8191 9.80807 17.7878 9.28329 18.0498 7.79807C18.3118 6.31285 14.8476 4.43157 10.3063 3.59984Z" fill="#A8A7A1"/>
<mask id="mask1_4836_9864" style="mask-type:luminance" maskUnits="userSpaceOnUse" x="1" y="3" width="18" height="7">
<path d="M10.3044 3.59691C5.7728 2.76519 1.87194 3.29987 1.60994 4.78509C1.60994 4.80489 1.60994 4.8346 1.60994 4.8544C1.46439 6.32972 4.88977 8.16149 9.35343 8.98332C13.8171 9.80514 17.7859 9.28036 18.0479 7.79514C18.3099 6.30992 14.8457 4.42864 10.3044 3.59691Z" fill="white"/>
</mask>
<g mask="url(#mask1_4836_9864)">
<path d="M4.45406 1.35938C4.45406 1.35938 3.22537 6.29039 5.27318 8.80687C6.30176 11.9159 -0.220703 6.29039 -0.220703 6.29039L1.1184 1.35945L4.45406 1.35938Z" fill="#A8A7A1"/>
</g>
<path d="M10.3063 3.59984C5.77475 2.76812 1.87389 3.3028 1.61189 4.78802C1.61189 4.80782 1.61189 4.83753 1.61189 4.85733C1.46634 6.33265 4.89172 8.16442 9.35539 8.98625C13.8191 9.80807 17.7878 9.28329 18.0498 7.79807C18.3118 6.31285 14.8476 4.43157 10.3063 3.59984Z" stroke="#21211D" stroke-width="0.841781" stroke-linecap="square" stroke-linejoin="round"/>
<path d="M8.57958 10.3705L9.1731 12.2802C9.29756 12.6823 11.1486 12.7349 13.214 12.0978C15.2795 11.4606 16.7822 10.3705 16.6578 9.96838L16.0642 8.05873L8.57958 10.3705Z" fill="white"/>
<mask id="mask2_4836_9864" style="mask-type:luminance" maskUnits="userSpaceOnUse" x="8" y="8" width="9" height="5">
<path d="M8.56786 10.3705L9.16138 12.2802C9.28584 12.6823 11.1369 12.7349 13.2023 12.0978C15.2678 11.4606 16.7705 10.3705 16.6461 9.96838L16.0525 8.05873L8.56786 10.3705Z" fill="white"/>
</mask>
<g mask="url(#mask2_4836_9864)">
<path d="M14.1435 7.5873L15.6936 12.6044L18.581 11.7072L16.9082 6.30662L14.1435 7.5873Z" fill="#A8A7A1"/>
<path d="M9.22837 9.2213L7.30939 9.81574L8.67754 14.2293L10.9986 13.5104L9.61744 9.06046L9.22837 9.2213Z" fill="white"/>
</g>
<path d="M8.57958 10.3705L9.1731 12.2802C9.29756 12.6823 11.1486 12.7349 13.214 12.0978C15.2795 11.4606 16.7822 10.3705 16.6578 9.96838L16.0642 8.05873L8.57958 10.3705Z" stroke="#21211D" stroke-width="0.841781" stroke-linecap="square" stroke-linejoin="round"/>
<path d="M17.8623 3.21168C17.5337 3.50782 17.0391 3.83919 16.3952 4.18529C15.1065 4.86818 13.3012 5.56441 11.3728 6.15977C9.44454 6.75514 7.49309 7.21152 6.03998 7.37384C5.32184 7.44476 4.78562 7.45062 4.34647 7.39039C3.8943 7.29378 3.92712 7.14927 3.89546 7.11473C5.26962 10.4447 9.08185 11.9517 12.8106 10.8019C16.5395 9.65204 18.8312 6.25204 18.0784 2.72889C18.1071 2.82964 17.9921 3.09527 17.8623 3.21168Z" fill="white"/>
<mask id="mask3_4836_9864" style="mask-type:luminance" maskUnits="userSpaceOnUse" x="3" y="2" width="16" height="10">
<path d="M17.8506 3.21265C17.522 3.50879 17.0273 3.84016 16.3835 4.18627C15.0948 4.86916 13.2894 5.56539 11.3611 6.16075C9.43282 6.75611 7.48137 7.2125 6.02827 7.37482C5.31012 7.44573 4.7739 7.45159 4.33475 7.39137C3.88258 7.29475 3.9154 7.15025 3.88374 7.1157C5.2579 10.4457 9.07013 11.9527 12.7989 10.8029C16.5277 9.65302 18.8195 6.25302 18.0666 2.72987C18.0954 2.83062 17.9804 3.09625 17.8506 3.21265Z" fill="white"/>
</mask>
<g mask="url(#mask3_4836_9864)">
<path d="M5.07807 6.10241C5.07807 6.10241 6.64519 10.2421 9.16012 11.105L5.07577 11.7061L2.74805 5.77686L5.07807 6.10241Z" fill="white"/>
<path d="M15.6305 3.47809C15.6305 3.47809 17.2556 6.67967 15.1086 9.92412C13.5755 12.2321 20.6458 4.10354 20.0627 2.1081C19.8807 1.50452 15.6398 3.47717 15.6398 3.47717L15.6305 3.47809Z" fill="#A8A7A1"/>
</g>
<path d="M17.8623 3.21168C17.5337 3.50782 17.0391 3.83919 16.3952 4.18529C15.1065 4.86818 13.3012 5.56441 11.3728 6.15977C9.44454 6.75514 7.49309 7.21152 6.03998 7.37384C5.32184 7.44476 4.78562 7.45062 4.34647 7.39039C3.8943 7.29378 3.92712 7.14927 3.89546 7.11473C5.26962 10.4447 9.08185 11.9517 12.8106 10.8019C16.5395 9.65204 18.8312 6.25204 18.0784 2.72889C18.1071 2.82964 17.9921 3.09527 17.8623 3.21168Z" stroke="#21211D" stroke-width="0.841781" stroke-linecap="square" stroke-linejoin="round"/>
<path d="M11.375 6.15349C15.2913 4.942 18.2949 3.40672 18.0838 2.72434C17.8727 2.04196 14.5268 2.47088 10.6106 3.68238C6.69429 4.89387 3.69066 6.42916 3.90175 7.11154C4.11284 7.79392 7.45873 7.36499 11.375 6.15349Z" fill="white"/>
<mask id="mask4_4836_9864" style="mask-type:luminance" maskUnits="userSpaceOnUse" x="3" y="2" width="16" height="6">
<path d="M11.377 6.15545C15.2932 4.94396 18.2969 3.40867 18.0858 2.72629C17.8747 2.04391 14.5288 2.47284 10.6125 3.68433C6.69625 4.89582 3.69261 6.43111 3.9037 7.11349C4.1148 7.79587 7.46068 7.36694 11.377 6.15545Z" fill="white"/>
</mask>
<g mask="url(#mask4_4836_9864)">
<path d="M13.6896 2.03085C13.6896 2.03085 16.5205 3.61 14.5295 6.62243C13.2186 8.60712 20.1805 3.84446 20.1805 3.84446L15.3696 1.47541L13.6896 2.03085Z" fill="#A8A7A1"/>
</g>
<path d="M11.375 6.15349C15.2913 4.942 18.2949 3.40672 18.0838 2.72434C17.8727 2.04196 14.5268 2.47088 10.6106 3.68238C6.69429 4.89387 3.69066 6.42916 3.90175 7.11154C4.11284 7.79392 7.45873 7.36499 11.375 6.15349Z" stroke="#21211D" stroke-width="0.841781" stroke-miterlimit="10"/>
<path d="M9.36107 8.98731C4.8877 8.17539 1.47203 6.34362 1.60788 4.8584C1.29736 8.95761 4.31519 12.4726 8.60419 13.2549C12.8932 14.0371 16.9687 11.7894 18.0458 7.79914C17.7838 9.28436 13.8927 9.81904 9.35137 8.98731H9.36107Z" fill="white"/>
<mask id="mask5_4836_9864" style="mask-type:luminance" maskUnits="userSpaceOnUse" x="1" y="4" width="18" height="10">
<path d="M9.36498 8.98683C4.89161 8.17491 1.47593 6.34313 1.61178 4.85791C1.30127 8.95712 4.3191 12.4721 8.6081 13.2544C12.8971 14.0366 16.9726 11.7889 18.0497 7.79865C17.7877 9.28387 13.8966 9.81855 9.35528 8.98683H9.36498Z" fill="white"/>
</mask>
<g mask="url(#mask5_4836_9864)">
<path d="M3.26076 4.40232C3.26076 4.40232 2.68825 9.44218 4.75512 11.6601L0.359375 10.1155L1.09685 2.83789L3.26076 4.40232Z" fill="white"/>
<path d="M9.95157 7.30371C9.95157 7.30371 9.92246 11.4227 6.08953 13.601C3.36281 15.1457 19.8419 10.591 20.2785 8.24435C20.4144 7.53144 15.1453 7.30371 15.1453 7.30371H9.95157Z" fill="#A8A7A1"/>
</g>
<path d="M9.36107 8.98731C4.8877 8.17539 1.47203 6.34362 1.60788 4.8584C1.29736 8.95761 4.31519 12.4726 8.60419 13.2549C12.8932 14.0371 16.9687 11.7894 18.0458 7.79914C17.7838 9.28436 13.8927 9.81904 9.35137 8.98731H9.36107Z" stroke="#21211D" stroke-width="0.841781" stroke-linecap="square" stroke-linejoin="round"/>
<path d="M18.3379 9.92448C17.8553 10.1457 17.1515 10.3568 16.2869 10.5277C14.5576 10.8595 12.205 11.0204 9.76191 11.0204C7.31881 11.0204 4.88577 10.8494 3.14644 10.5177C2.28181 10.3467 1.66852 10.1557 1.18594 9.92448C0.703348 9.65303 0.78378 9.50222 0.763672 9.44189C1.16583 13.7952 5.04663 16.9119 9.77196 16.9119C14.4973 16.9119 18.3781 13.7952 18.7803 9.44189C18.7803 9.56254 18.549 9.834 18.3479 9.92448H18.3379Z" fill="white"/>
<mask id="mask6_4836_9864" style="mask-type:luminance" maskUnits="userSpaceOnUse" x="0" y="9" width="19" height="8">
<path d="M18.3418 9.92204C17.8592 10.1432 17.1554 10.3544 16.2908 10.5253C14.5615 10.8571 12.2089 11.0179 9.76581 11.0179C7.32272 11.0179 4.88967 10.847 3.15035 10.5152C2.28572 10.3443 1.67243 10.1533 1.18984 9.92204C0.707255 9.65058 0.787686 9.49978 0.767578 9.43945C1.16973 13.7928 5.05054 16.9095 9.77587 16.9095C14.5012 16.9095 18.382 13.7928 18.7842 9.43945C18.7842 9.5601 18.5529 9.83155 18.3518 9.92204H18.3418Z" fill="white"/>
</mask>
<g mask="url(#mask6_4836_9864)">
<path d="M2.49596 8.69601C2.49596 8.69601 2.82774 14.0547 5.44175 15.9549L0.495235 15.1908L-0.0878906 7.47949L2.49596 8.69601Z" fill="white"/>
<path d="M15.6626 9.4397C15.6626 9.4397 16.3965 13.7327 12.7469 16.7187C10.143 18.8401 21.2525 11.9632 21.2827 9.4397C21.2927 8.6756 15.6626 9.4397 15.6626 9.4397Z" fill="#A8A7A1"/>
</g>
<path d="M18.3379 9.92448C17.8553 10.1457 17.1515 10.3568 16.2869 10.5277C14.5576 10.8595 12.205 11.0204 9.76191 11.0204C7.31881 11.0204 4.88577 10.8494 3.14644 10.5177C2.28181 10.3467 1.66852 10.1557 1.18594 9.92448C0.703349 9.65303 0.78378 9.50222 0.763672 9.44189C1.16583 13.7952 5.04663 16.9119 9.77196 16.9119C14.4973 16.9119 18.3781 13.7952 18.7803 9.44189C18.7803 9.56254 18.549 9.834 18.3479 9.92448H18.3379Z" stroke="#21211D" stroke-width="0.841781" stroke-linecap="square" stroke-linejoin="round"/>
</g>
<defs>
<clipPath id="clip0_4836_9864">
<rect width="19.9991" height="19.9991" fill="white" transform="translate(0 0.000488281)"/>
</clipPath>
</defs>
</svg>
