<svg width="20" height="20" viewBox="0 0 20 20" fill="none" xmlns="http://www.w3.org/2000/svg">
<g clip-path="url(#clip0_4518_5123)">
<path d="M5.23859 11.6886V14.1181C5.23859 14.6322 7.37572 15.358 9.99674 15.358C12.6177 15.358 14.7549 14.6322 14.7549 14.1181V11.6886H5.22852H5.23859Z" fill="white"/>
<mask id="mask0_4518_5123" style="mask-type:luminance" maskUnits="userSpaceOnUse" x="5" y="11" width="10" height="5">
<path d="M5.24445 11.6892V14.1187C5.24445 14.6328 7.38158 15.3586 10.0026 15.3586C12.6236 15.3586 14.7607 14.6328 14.7607 14.1187V11.6892H5.23438H5.24445Z" fill="white"/>
</mask>
<g mask="url(#mask0_4518_5123)">
<path d="M12.709 10.4595V16.8508H16.3885V9.96558L12.709 10.4595Z" fill="#A8A7A1"/>
<path d="M6.40831 10.5997H3.96875V16.2147H6.93251V10.5392L6.40831 10.5997Z" fill="white"/>
</g>
<path d="M5.23859 11.6886V14.1181C5.23859 14.6322 7.37572 15.358 9.99674 15.358C12.6177 15.358 14.7549 14.6322 14.7549 14.1181V11.6886H5.22852H5.23859Z" stroke="#21211D" stroke-width="0.841781" stroke-linecap="square" stroke-linejoin="round"/>
<path d="M19.0277 6.22368C19.0277 5.35673 14.9853 4.64099 9.9953 4.64099C5.0053 4.64099 0.962891 5.34665 0.962891 6.22368C0.962891 6.7378 2.38429 7.19144 4.55167 7.48378C4.03754 7.95758 3.72503 8.53219 3.72503 9.14712C3.72503 10.76 5.78153 12.0706 8.3219 12.0706C10.8623 12.0706 12.9187 10.76 12.9187 9.14712C12.9187 8.63299 12.697 8.16928 12.3341 7.74588C16.1849 7.56443 19.0176 6.9495 19.0176 6.22368H19.0277Z" fill="white"/>
<mask id="mask1_4518_5123" style="mask-type:luminance" maskUnits="userSpaceOnUse" x="0" y="4" width="20" height="9">
<path d="M19.0219 6.22441C19.0219 5.35746 14.9794 4.64172 9.98944 4.64172C4.99944 4.64172 0.957031 5.34738 0.957031 6.22441C0.957031 6.73853 2.37843 7.19217 4.54581 7.48451C4.03169 7.95831 3.71917 8.53292 3.71917 9.14785C3.71917 10.7608 5.77567 12.0713 8.31604 12.0713C10.8564 12.0713 12.9129 10.7608 12.9129 9.14785C12.9129 8.63373 12.6911 8.17001 12.3282 7.74661C16.1791 7.56516 19.0118 6.95023 19.0118 6.22441H19.0219Z" fill="white"/>
</mask>
<g mask="url(#mask1_4518_5123)">
<path d="M7.51188 2.18396C7.51188 2.18396 3.82582 7.91782 12.8362 15.6995L-2.54195 9.63126L-3.13672 2.81663L7.51188 2.18396Z" fill="#A8A7A1"/>
</g>
<path d="M19.0277 6.22368C19.0277 5.35673 14.9853 4.64099 9.9953 4.64099C5.0053 4.64099 0.962891 5.34665 0.962891 6.22368C0.962891 6.7378 2.38429 7.19144 4.55167 7.48378C4.03754 7.95758 3.72503 8.53219 3.72503 9.14712C3.72503 10.76 5.78153 12.0706 8.3219 12.0706C10.8623 12.0706 12.9187 10.76 12.9187 9.14712C12.9187 8.63299 12.697 8.16928 12.3341 7.74588C16.1849 7.56443 19.0176 6.9495 19.0176 6.22368H19.0277Z" stroke="#21211D" stroke-width="0.841781" stroke-miterlimit="10"/>
<path d="M18.5959 6.69823C18.112 6.92001 17.4063 7.13171 16.5394 7.30308C14.8055 7.63575 12.4466 7.79704 9.99694 7.79704L9.82556 9.04706L8.87796 9.96442L8.15214 11.9806L7.25495 10.2971L7.53721 8.86561C7.53721 8.86561 6.81141 7.70632 6.47874 7.67607C5.31945 7.59543 4.25087 7.46438 3.36376 7.293C2.49681 7.12163 1.88188 6.93009 1.398 6.69823C0.914123 6.42605 0.994771 6.27484 0.974609 6.21436C1.37784 10.5793 5.26904 13.7044 10.007 13.7044C14.745 13.7044 18.6362 10.5793 19.0394 6.21436C19.0394 6.33533 18.8076 6.60751 18.606 6.69823H18.5959Z" fill="white"/>
<mask id="mask2_4518_5123" style="mask-type:luminance" maskUnits="userSpaceOnUse" x="0" y="6" width="20" height="8">
<path d="M18.5959 6.69921C18.112 6.92099 17.4063 7.13269 16.5394 7.30406C14.8055 7.63673 12.4466 7.79802 9.99694 7.79802L9.82556 9.04804L8.87796 9.9654L8.15214 11.9816L7.25495 10.2981L7.53721 8.86659C7.53721 8.86659 6.81141 7.70729 6.47874 7.67705C5.31945 7.5964 4.25087 7.46535 3.36376 7.29398C2.49681 7.12261 1.88188 6.93107 1.398 6.69921C0.914123 6.42703 0.994771 6.27582 0.974609 6.21533C1.37784 10.5803 5.26904 13.7054 10.007 13.7054C14.745 13.7054 18.6362 10.5803 19.0394 6.21533C19.0394 6.3363 18.8076 6.60848 18.606 6.69921H18.5959Z" fill="white"/>
</mask>
<g mask="url(#mask2_4518_5123)">
<path d="M2.70569 5.46758C2.70569 5.46758 3.03835 10.8407 5.65936 12.7459L0.699606 11.9798L0.125 4.2478L2.71577 5.46758H2.70569Z" fill="white"/>
<path d="M15.9097 6.22356C15.9097 6.22356 16.6456 10.5281 12.9863 13.5221C10.3753 15.6491 21.5146 8.75385 21.5449 6.22356C21.555 5.45742 15.9097 6.22356 15.9097 6.22356Z" fill="#A8A7A1"/>
</g>
<path d="M18.5959 6.69823C18.112 6.92001 17.4063 7.13171 16.5394 7.30308C14.8055 7.63575 12.4466 7.79704 9.99694 7.79704L9.82556 9.04706L8.87797 9.96442L8.15215 11.9806L7.25495 10.2971L7.53721 8.86561C7.53721 8.86561 6.81141 7.70632 6.47874 7.67607C5.31945 7.59543 4.25087 7.46438 3.36376 7.293C2.49681 7.12163 1.88188 6.93009 1.398 6.69823C0.914123 6.42605 0.994771 6.27484 0.974609 6.21436C1.37784 10.5793 5.26904 13.7044 10.007 13.7044C14.745 13.7044 18.6362 10.5793 19.0394 6.21436C19.0394 6.33533 18.8076 6.60751 18.606 6.69823H18.5959Z" stroke="#21211D" stroke-width="0.841781" stroke-linecap="square" stroke-linejoin="round"/>
</g>
<defs>
<clipPath id="clip0_4518_5123">
<rect width="19.9991" height="19.9991" fill="white" transform="translate(-0.00195312 0.000488281)"/>
</clipPath>
</defs>
</svg>
