<svg width="20" height="20" viewBox="0 0 20 20" fill="none" xmlns="http://www.w3.org/2000/svg">
<g clip-path="url(#clip0_4836_9975)">
<path d="M5.23242 11.6904V14.1232C5.23242 14.638 7.37247 15.3649 9.99707 15.3649C12.6217 15.3649 14.7617 14.638 14.7617 14.1232V11.6904H5.23242Z" fill="white"/>
<mask id="mask0_4836_9975" style="mask-type:luminance" maskUnits="userSpaceOnUse" x="5" y="11" width="10" height="5">
<path d="M5.23047 11.6899V14.1227C5.23047 14.6376 7.37052 15.3644 9.99511 15.3644C12.6197 15.3644 14.7598 14.6376 14.7598 14.1227V11.6899H5.23047Z" fill="white"/>
</mask>
<g mask="url(#mask0_4836_9975)">
<path d="M12.7188 10.458V16.858H16.3932V9.96338L12.7188 10.458Z" fill="#A8A7A1"/>
<path d="M6.39992 10.6003H3.95703V16.223H6.92484V10.5498L6.39992 10.6003Z" fill="white"/>
</g>
<path d="M5.23242 11.6904V14.1232C5.23242 14.638 7.37247 15.3649 9.99707 15.3649C12.6217 15.3649 14.7617 14.638 14.7617 14.1232V11.6904H5.23242Z" stroke="#21211D" stroke-width="0.841781" stroke-linecap="square" stroke-linejoin="round"/>
<path d="M9.99983 7.80447C14.9951 7.80447 19.0446 7.0949 19.0446 6.21962C19.0446 5.34433 14.9951 4.63477 9.99983 4.63477C5.00455 4.63477 0.955078 5.34433 0.955078 6.21962C0.955078 7.0949 5.00455 7.80447 9.99983 7.80447Z" fill="white"/>
<mask id="mask1_4836_9975" style="mask-type:luminance" maskUnits="userSpaceOnUse" x="0" y="4" width="20" height="4">
<path d="M9.99983 7.80544C14.9951 7.80544 19.0446 7.09588 19.0446 6.22059C19.0446 5.3453 14.9951 4.63574 9.99983 4.63574C5.00455 4.63574 0.955078 5.3453 0.955078 6.22059C0.955078 7.09588 5.00455 7.80544 9.99983 7.80544Z" fill="white"/>
</mask>
<g mask="url(#mask1_4836_9975)">
<path d="M7.23134 2.4165C7.23134 2.4165 2.60597 5.23468 9.21515 10.5611C12.7079 14.7403 -2.02539 5.94193 -2.02539 5.94193L0.205513 1.55078L7.23134 2.4165Z" fill="#A8A7A1"/>
</g>
<path d="M9.99983 7.80447C14.9951 7.80447 19.0446 7.0949 19.0446 6.21962C19.0446 5.34433 14.9951 4.63477 9.99983 4.63477C5.00455 4.63477 0.955078 5.34433 0.955078 6.21962C0.955078 7.0949 5.00455 7.80447 9.99983 7.80447Z" stroke="#21211D" stroke-width="0.841781" stroke-miterlimit="10"/>
<path d="M17.9381 5.46191C18.6346 5.68399 19.0384 5.94645 19.0384 6.21901C19.0384 7.08714 14.9905 7.80386 9.99364 7.80386C4.99682 7.80386 0.958984 7.08714 0.958984 6.21901C0.958984 6.03731 1.14069 5.8556 1.47381 5.69409" stroke="#21211D" stroke-width="0.841781" stroke-miterlimit="10"/>
<path d="M18.6004 6.70378C18.1159 6.92586 17.4093 7.13785 16.5411 7.30945C14.8049 7.64258 12.4427 7.80409 9.98973 7.80409C7.53675 7.80409 5.09386 7.63248 3.3475 7.29936C2.47936 7.12775 1.86359 6.93595 1.37905 6.70378C0.894511 6.43122 0.975267 6.27981 0.955078 6.21924C1.35886 10.5902 5.25537 13.7195 9.99983 13.7195C14.7443 13.7195 18.6408 10.5902 19.0446 6.21924C19.0446 6.34037 18.8124 6.61293 18.6105 6.70378H18.6004Z" fill="white"/>
<mask id="mask2_4836_9975" style="mask-type:luminance" maskUnits="userSpaceOnUse" x="0" y="6" width="20" height="8">
<path d="M18.6004 6.70476C18.1159 6.92684 17.4093 7.13882 16.5411 7.31043C14.8049 7.64355 12.4427 7.80507 9.98973 7.80507C7.53675 7.80507 5.09386 7.63346 3.3475 7.30034C2.47936 7.12873 1.86359 6.93693 1.37905 6.70476C0.894511 6.4322 0.975267 6.28078 0.955078 6.22021C1.35886 10.5912 5.25537 13.7205 9.99983 13.7205C14.7443 13.7205 18.6408 10.5912 19.0446 6.22021C19.0446 6.34135 18.8124 6.6139 18.6105 6.70476H18.6004Z" fill="white"/>
</mask>
<g mask="url(#mask2_4836_9975)">
<path d="M2.69197 5.46217C2.69197 5.46217 3.02509 10.8426 5.64968 12.7505L0.683142 11.9833L0.0976562 4.24072L2.69197 5.46217Z" fill="white"/>
<path d="M15.9142 6.21988C15.9142 6.21988 16.6512 10.5303 12.9868 13.5284C10.3723 15.6583 21.5268 8.75362 21.5571 6.21988C21.5672 5.45269 15.9142 6.21988 15.9142 6.21988Z" fill="#A8A7A1"/>
</g>
<path d="M18.6004 6.70378C18.1159 6.92586 17.4093 7.13785 16.5411 7.30945C14.8049 7.64258 12.4427 7.80409 9.98973 7.80409C7.53675 7.80409 5.09386 7.63248 3.3475 7.29936C2.47936 7.12775 1.86359 6.93595 1.37905 6.70378C0.894511 6.43122 0.975267 6.27981 0.955078 6.21924C1.35886 10.5902 5.25537 13.7195 9.99983 13.7195C14.7443 13.7195 18.6408 10.5902 19.0446 6.21924C19.0446 6.34037 18.8124 6.61293 18.6105 6.70378H18.6004Z" stroke="#21211D" stroke-width="0.841781" stroke-linecap="square" stroke-linejoin="round"/>
</g>
<defs>
<clipPath id="clip0_4836_9975">
<rect width="19.9991" height="19.9991" fill="white" transform="translate(0 0.000488281)"/>
</clipPath>
</defs>
</svg>
