<svg width="337" height="199" viewBox="0 0 337 199" fill="none" xmlns="http://www.w3.org/2000/svg">
<ellipse cx="298.611" cy="179.451" rx="38.388" ry="11.8551" fill="#BC8B38"/>
<ellipse cx="298.611" cy="172.112" rx="38.388" ry="11.8551" fill="#BC8B38"/>
<ellipse cx="298.609" cy="163.08" rx="28.2265" ry="11.8551" fill="#BC8B38"/>
<circle cx="62.0848" cy="62.0848" r="50.2431" transform="rotate(-15.899 62.0848 62.0848)" fill="#BC8B38"/>
<path fill-rule="evenodd" clip-rule="evenodd" d="M101.025 198.644C148.728 198.644 187.398 186.765 187.398 172.111C187.398 157.457 148.728 145.578 101.025 145.578C53.3229 145.578 14.6523 157.457 14.6523 172.111C14.6523 186.765 53.3229 198.644 101.025 198.644ZM101.027 183.966C122.228 183.966 139.415 178.658 139.415 172.111C139.415 165.564 122.228 160.256 101.027 160.256C79.8256 160.256 62.6387 165.564 62.6387 172.111C62.6387 178.658 79.8256 183.966 101.027 183.966Z" fill="#BC8B38"/>
<ellipse cx="101.027" cy="174.934" rx="38.388" ry="11.8551" fill="#BC8B38"/>
<rect x="63.7578" y="100.937" width="18.0649" height="76.2115" transform="rotate(-15.899 63.7578 100.937)" fill="#BC8B38"/>
<ellipse cx="28.7079" cy="44.6566" rx="7.32606" ry="14.6521" transform="rotate(24.2731 28.7079 44.6566)" fill="#F5C622"/>
</svg>
