<svg width="60" height="56" viewBox="0 0 60 56" fill="none" xmlns="http://www.w3.org/2000/svg">
<path d="M47.3578 33.8882L53.2485 10.917H44.9308L41.9844 22.4026H40.5413L43.4877 10.917H35.169L30.259 30.06H19.0552L20.0369 26.2318H11.7182L8.85352 37.4034H28.3761L27.3943 41.2316H35.7131L38.6584 29.746H40.1015L37.1562 41.2316L45.7986 41.2337L43.835 48.8933L52.1549 48.889L56.0002 33.8925L47.3578 33.8882Z" fill="#A8A7A1"/>
<path d="M12.0854 24.7998H20.4031L22.0806 18.2607H23.5237L20.8644 28.628H29.1831L33.7318 10.8915L6.86038 7.10742L4 18.2607H13.7618L12.0854 24.7998Z" fill="#A8A7A1"/>
<path d="M8.29534 42.3857H11.0374C11.5084 42.3857 11.8988 42.4782 12.2106 42.6632C12.5214 42.8481 12.7321 43.1084 12.8429 43.4449C12.9526 43.7815 12.9504 44.1719 12.8365 44.6149C12.7214 45.0612 12.5214 45.4494 12.2364 45.7816C11.9515 46.1139 11.6009 46.3698 11.1869 46.5494C10.7729 46.729 10.3223 46.8182 9.83736 46.8182H8.18673L8.52223 45.5182H9.84058C10.0503 45.5182 10.2395 45.4816 10.4105 45.4074C10.5815 45.3332 10.7234 45.2278 10.8363 45.0934C10.9492 44.959 11.0299 44.7988 11.0772 44.6149C11.1245 44.431 11.1267 44.2719 11.0826 44.1364C11.0385 44.0009 10.9503 43.8987 10.817 43.8288C10.6836 43.7589 10.5116 43.7235 10.303 43.7235H9.6438L8.35555 48.7248H6.66406L8.29749 42.3857H8.29534Z" fill="#A8A7A1"/>
<path d="M14.1395 48.7258H12.4609L14.0944 42.3867H15.773L14.1395 48.7258Z" fill="#A8A7A1"/>
<path d="M17.8602 46.7985C17.657 46.8092 17.4946 46.82 17.3742 46.8329C17.2215 46.849 17.0881 46.9017 16.9752 46.991C16.8623 47.0802 16.7892 47.1899 16.7548 47.3222C16.7311 47.4125 16.7333 47.491 16.7623 47.5555C16.7903 47.62 16.8408 47.6695 16.9129 47.7007C16.9849 47.733 17.072 47.7491 17.1752 47.7491C17.3172 47.7491 17.457 47.72 17.5946 47.6609C17.7323 47.6018 17.8505 47.52 17.9516 47.4136C18.0516 47.3071 18.1205 47.1835 18.157 47.0404L18.5484 45.4748C18.571 45.3877 18.5667 45.3124 18.5377 45.2489C18.5076 45.1855 18.457 45.1371 18.3828 45.1048C18.3097 45.0726 18.2183 45.0565 18.1097 45.0565C17.9925 45.0565 17.8871 45.0726 17.7925 45.1059C17.6979 45.1393 17.615 45.1887 17.5419 45.2554C17.4688 45.3221 17.414 45.4049 17.3763 45.5016H15.8257C15.9246 45.2059 16.0902 44.9371 16.3236 44.6951C16.5569 44.4532 16.8516 44.2618 17.2086 44.1209C17.5656 43.9811 17.9721 43.9102 18.4291 43.9102C18.8657 43.9102 19.2345 43.9768 19.5334 44.1102C19.8324 44.2435 20.0421 44.4295 20.1614 44.6672C20.2808 44.9048 20.3023 45.1758 20.2238 45.4769L19.3861 48.7266H17.814L17.986 48.0577H17.9484C17.8097 48.2308 17.6591 48.3717 17.4957 48.4803C17.3333 48.5889 17.157 48.6696 16.9688 48.7233C16.7806 48.7771 16.5774 48.804 16.3601 48.804C16.0483 48.804 15.7881 48.7524 15.5795 48.6502C15.3698 48.5481 15.2257 48.3932 15.1472 48.1846C15.0676 47.976 15.0687 47.7179 15.1472 47.4104C15.2741 46.9168 15.5311 46.5501 15.9171 46.3103C16.3031 46.0694 16.7698 45.9329 17.3161 45.9006C17.4365 45.8941 17.5978 45.8877 17.7968 45.8791C17.9968 45.8705 18.171 45.864 18.3183 45.8576C18.3861 45.8554 18.4527 45.8533 18.5172 45.8511L18.2839 46.7791C18.2022 46.7813 18.0592 46.7877 17.8559 46.7974L17.8602 46.7985Z" fill="#A8A7A1"/>
<path d="M21.2741 48.5081C20.9526 48.3038 20.7396 48.0166 20.6375 47.6478C20.5353 47.2779 20.5461 46.8499 20.6719 46.3628C20.7977 45.8757 21.0063 45.4477 21.2999 45.0788C21.5924 44.71 21.9526 44.4229 22.3795 44.2186C22.8064 44.0143 23.2742 43.9121 23.7828 43.9121C24.2452 43.9121 24.628 43.9949 24.9302 44.1594C25.2324 44.325 25.4388 44.5584 25.5496 44.8627C25.6593 45.1659 25.6646 45.5197 25.5646 45.924H24.0054C24.0334 45.7584 24.0312 45.6187 23.999 45.5025C23.9667 45.3864 23.9065 45.2993 23.8183 45.2412C23.7301 45.1821 23.6194 45.153 23.4882 45.153C23.329 45.153 23.1785 45.1982 23.0376 45.2875C22.8967 45.3767 22.7699 45.5111 22.658 45.6896C22.5462 45.8681 22.4569 46.0886 22.3892 46.3499C22.3214 46.6123 22.2978 46.8327 22.3171 47.0112C22.3376 47.1897 22.3946 47.3241 22.4892 47.4155C22.5838 47.5059 22.7107 47.5521 22.8699 47.5521C23.0021 47.5521 23.1269 47.522 23.2452 47.4607C23.3634 47.3994 23.4688 47.3123 23.5624 47.1972C23.6559 47.0833 23.7291 46.9445 23.7839 46.7811H25.3431C25.2291 47.1919 25.0399 47.5499 24.7743 47.8553C24.5097 48.1607 24.1828 48.3973 23.7957 48.564C23.4086 48.7307 22.9839 48.8145 22.5215 48.8145C22.0107 48.8145 21.5945 48.7124 21.273 48.5081H21.2741Z" fill="#A8A7A1"/>
<path d="M26.5943 48.5211C26.2739 48.3254 26.061 48.0436 25.9588 47.6759C25.8556 47.3081 25.8696 46.8715 26.0008 46.3629C26.1255 45.8779 26.3363 45.4489 26.632 45.0768C26.9277 44.7047 27.2847 44.4176 27.7041 44.2144C28.1235 44.0122 28.5772 43.9111 29.0644 43.9111C29.5418 43.9111 29.9343 44.0079 30.2429 44.2025C30.5515 44.3961 30.7569 44.6768 30.8591 45.0435C30.9612 45.4101 30.9473 45.8446 30.8182 46.3478L30.7182 46.7382H26.4438L26.6814 45.8155H29.4052C29.4397 45.6736 29.4364 45.5467 29.3956 45.4349C29.3536 45.323 29.2816 45.237 29.1783 45.1746C29.0751 45.1123 28.9493 45.0822 28.8009 45.0822C28.6525 45.0822 28.5084 45.1133 28.3686 45.1768C28.2288 45.2402 28.1084 45.3273 28.0062 45.4403C27.9041 45.5532 27.8331 45.68 27.7944 45.822L27.5417 46.8027C27.4987 46.9683 27.4955 47.1135 27.5309 47.2404C27.5664 47.3672 27.6396 47.4662 27.7514 47.5371C27.8632 47.6081 28.0052 47.6436 28.1783 47.6436C28.302 47.6436 28.4192 47.6264 28.5299 47.5931C28.6407 47.5586 28.7407 47.5103 28.8299 47.4457C28.9192 47.3823 28.9923 47.3059 29.0504 47.2167H30.5881C30.4505 47.5404 30.2494 47.8232 29.9859 48.063C29.7225 48.3039 29.4074 48.4888 29.0407 48.6189C28.6751 48.749 28.2751 48.8136 27.8417 48.8136C27.3309 48.8136 26.9159 48.7157 26.5954 48.5189L26.5943 48.5211Z" fill="#A8A7A1"/>
<path d="M31.4111 48.7108C31.2982 48.6345 31.2186 48.5312 31.1745 48.4033C31.1304 48.2742 31.1294 48.1323 31.1713 47.9774C31.2089 47.8247 31.2821 47.6839 31.3928 47.5548C31.5036 47.4258 31.6348 47.3247 31.7864 47.2505C31.938 47.1763 32.0928 47.1387 32.2498 47.1387C32.4004 47.1387 32.5316 47.1763 32.6445 47.2505C32.7574 47.3247 32.8359 47.4269 32.8811 47.557C32.9262 47.6871 32.9305 47.8269 32.894 47.9785C32.852 48.1312 32.7757 48.2721 32.6638 48.4022C32.552 48.5323 32.4197 48.6355 32.2692 48.7119C32.1176 48.7882 31.967 48.8269 31.8165 48.8259C31.6595 48.8259 31.5251 48.7872 31.4111 48.7108Z" fill="#A8A7A1"/>
</svg>
