<svg width="110" height="100" viewBox="0 0 110 100" fill="none" xmlns="http://www.w3.org/2000/svg">
<path d="M89.2342 61.6127L100.852 16.3071H84.4474L78.6363 38.9599H75.7901L81.6012 16.3071H65.1944L55.5106 54.0625H33.4135L35.3498 46.5123H18.9429L13.293 68.5457H51.797L49.8606 76.096H66.2675L72.0765 53.4432H74.9227L69.1137 76.096L86.1589 76.1002L82.2863 91.207L98.6953 91.1985L106.279 61.6212L89.2342 61.6127Z" fill="#070706"/>
<path d="M19.6674 43.6873H36.0721L39.3806 30.7904H42.2268L36.982 51.2375H53.3888L62.36 16.2562L9.36216 8.79297L3.7207 30.7904H22.9738L19.6674 43.6873Z" fill="#070706"/>
<path d="M12.1939 78.3716H17.6021C18.531 78.3716 19.3008 78.554 19.9159 78.9188C20.5288 79.2835 20.9445 79.7968 21.163 80.4606C21.3793 81.1244 21.375 81.8943 21.1502 82.7681C20.9233 83.6482 20.5288 84.4139 19.9668 85.0692C19.4048 85.7246 18.7134 86.2293 17.8968 86.5835C17.0803 86.9377 16.1917 87.1137 15.2352 87.1137H11.9797L12.6414 84.5496H15.2415C15.6551 84.5496 16.0284 84.4775 16.3656 84.3312C16.7028 84.1848 16.9828 83.977 17.2055 83.7119C17.4281 83.4468 17.5872 83.1308 17.6805 82.7681C17.7738 82.4054 17.7781 82.0915 17.6911 81.8243C17.6042 81.5571 17.4303 81.3556 17.1673 81.2178C16.9043 81.0799 16.565 81.0099 16.1535 81.0099H14.8534L12.3127 90.874H8.97656L12.1981 78.3716H12.1939Z" fill="#070706"/>
<path d="M23.7228 90.8759H20.4121L23.6337 78.3735H26.9443L23.7228 90.8759Z" fill="#070706"/>
<path d="M31.0596 87.0736C30.6588 87.0948 30.3385 87.116 30.101 87.1414C29.7998 87.1732 29.5368 87.2772 29.3142 87.4532C29.0915 87.6292 28.9472 87.8455 28.8794 88.1064C28.8327 88.2846 28.837 88.4394 28.8942 88.5666C28.9494 88.6939 29.049 88.7914 29.1911 88.8529C29.3332 88.9166 29.505 88.9484 29.7086 88.9484C29.9886 88.9484 30.2643 88.8911 30.5358 88.7745C30.8072 88.6578 31.0405 88.4966 31.2399 88.2867C31.4371 88.0767 31.5729 87.8328 31.645 87.5507L32.417 84.4628C32.4615 84.291 32.453 84.1425 32.3957 84.0174C32.3364 83.8923 32.2367 83.7968 32.0903 83.7332C31.9461 83.6696 31.7659 83.6378 31.5516 83.6378C31.3205 83.6378 31.1126 83.6696 30.926 83.7353C30.7394 83.8011 30.5761 83.8986 30.4318 84.0301C30.2876 84.1616 30.1795 84.3249 30.1052 84.5158H27.047C27.2421 83.9326 27.5687 83.4024 28.0289 82.9252C28.4891 82.448 29.0703 82.0705 29.7744 81.7926C30.4785 81.5169 31.2802 81.377 32.1815 81.377C33.0426 81.377 33.7701 81.5084 34.3597 81.7714C34.9492 82.0344 35.3628 82.4013 35.5982 82.87C35.8336 83.3387 35.8761 83.8732 35.7212 84.467L34.0691 90.8762H30.9684L31.3078 89.5571H31.2335C30.9599 89.8985 30.663 90.1764 30.3406 90.3906C30.0204 90.6048 29.6726 90.7638 29.3014 90.8699C28.9303 90.9759 28.5294 91.0289 28.101 91.0289C27.486 91.0289 26.9727 90.9271 26.5613 90.7257C26.1477 90.5242 25.8635 90.2188 25.7087 89.8073C25.5518 89.3959 25.5539 88.8869 25.7087 88.2803C25.959 87.3068 26.4659 86.5836 27.2272 86.1107C27.9886 85.6356 28.9091 85.3663 29.9865 85.3026C30.224 85.2899 30.5421 85.2772 30.9345 85.2602C31.329 85.2433 31.6725 85.2305 31.9631 85.2178C32.0967 85.2136 32.2282 85.2093 32.3554 85.2051L31.8952 87.0354C31.734 87.0396 31.452 87.0523 31.0511 87.0714L31.0596 87.0736Z" fill="#070706"/>
<path d="M37.7903 90.4459C37.1562 90.0429 36.7362 89.4766 36.5348 88.7492C36.3333 88.0196 36.3545 87.1755 36.6026 86.2148C36.8508 85.254 37.2622 84.4099 37.8412 83.6825C38.4181 82.955 39.1286 82.3887 39.9705 81.9858C40.8125 81.5828 41.7351 81.3813 42.7382 81.3813C43.6502 81.3813 44.4052 81.5447 45.0012 81.8691C45.5971 82.1958 46.0044 82.656 46.2228 83.2562C46.4391 83.8543 46.4497 84.552 46.2525 85.3495H43.1773C43.2324 85.0228 43.2282 84.7471 43.1645 84.5181C43.1009 84.289 42.9821 84.1172 42.8082 84.0027C42.6343 83.8861 42.4159 83.8288 42.1571 83.8288C41.8432 83.8288 41.5463 83.9179 41.2685 84.0939C40.9907 84.2699 40.7404 84.535 40.5198 84.8871C40.2993 85.2392 40.1232 85.6739 39.9896 86.1893C39.856 86.7068 39.8094 87.1416 39.8475 87.4936C39.8878 87.8457 40.0002 88.1108 40.1869 88.2911C40.3735 88.4692 40.6238 88.5604 40.9376 88.5604C41.1985 88.5604 41.4445 88.501 41.6778 88.3801C41.9111 88.2593 42.119 88.0875 42.3035 87.8605C42.488 87.6357 42.6322 87.3621 42.7404 87.0398H45.8156C45.5908 87.8499 45.2175 88.5562 44.6937 89.1585C44.1719 89.7608 43.5272 90.2274 42.7637 90.5561C42.0002 90.8849 41.1625 91.0503 40.2505 91.0503C39.2431 91.0503 38.4223 90.8488 37.7882 90.4459H37.7903Z" fill="#070706"/>
<path d="M48.2844 90.471C47.6524 90.085 47.2325 89.5293 47.031 88.804C46.8274 88.0787 46.8549 87.2176 47.1137 86.2144C47.3597 85.2579 47.7754 84.4117 48.3586 83.6779C48.9419 82.9441 49.646 82.3778 50.4731 81.977C51.3002 81.5783 52.1952 81.3789 53.156 81.3789C54.0976 81.3789 54.8717 81.5698 55.4804 81.9537C56.0891 82.3354 56.4942 82.8889 56.6957 83.6122C56.8972 84.3354 56.8696 85.1922 56.6151 86.1847L56.4178 86.9546H47.9875L48.4562 85.1349H53.8283C53.8962 84.855 53.8898 84.6047 53.8092 84.3842C53.7265 84.1636 53.5844 83.9939 53.3808 83.8709C53.1772 83.7479 52.929 83.6885 52.6364 83.6885C52.3437 83.6885 52.0595 83.75 51.7838 83.8751C51.5081 84.0003 51.2705 84.1721 51.0691 84.3948C50.8676 84.6174 50.7276 84.8677 50.6513 85.1477L50.1529 87.0819C50.068 87.4085 50.0617 87.6948 50.1317 87.945C50.2016 88.1953 50.3459 88.3904 50.5664 88.5304C50.787 88.6704 51.0669 88.7404 51.4084 88.7404C51.6523 88.7404 51.8835 88.7064 52.1019 88.6407C52.3204 88.5728 52.5176 88.4774 52.6936 88.3501C52.8697 88.225 53.0139 88.0744 53.1284 87.8984H56.1612C55.8898 88.5368 55.4932 89.0945 54.9735 89.5675C54.4539 90.0426 53.8325 90.4074 53.1093 90.664C52.3882 90.9206 51.5993 91.0479 50.7446 91.0479C49.7372 91.0479 48.9185 90.8549 48.2865 90.4667L48.2844 90.471Z" fill="#070706"/>
<path d="M57.7854 90.8463C57.5627 90.6957 57.4058 90.4921 57.3188 90.2397C57.2318 89.9852 57.2297 89.7053 57.3124 89.3999C57.3867 89.0987 57.5309 88.8209 57.7493 88.5664C57.9678 88.3119 58.2265 88.1125 58.5256 87.9662C58.8246 87.8198 59.13 87.7456 59.4396 87.7456C59.7366 87.7456 59.9953 87.8198 60.218 87.9662C60.4407 88.1125 60.5955 88.314 60.6846 88.5706C60.7737 88.8272 60.7821 89.1029 60.71 89.402C60.6273 89.7031 60.4767 89.981 60.2562 90.2376C60.0356 90.4942 59.7747 90.6978 59.4778 90.8484C59.1788 90.999 58.8819 91.0753 58.5849 91.0732C58.2753 91.0732 58.0102 90.9969 57.7854 90.8463Z" fill="#070706"/>
</svg>
