<svg width="537" height="331" viewBox="0 0 537 331" fill="none" xmlns="http://www.w3.org/2000/svg">
<path d="M415.841 158.987L401.439 160.446C396.499 161.017 394.773 159.351 395.839 154.989L430.52 13.0514L450.318 17.8887L438.142 67.7178L445.524 69.5215L458.315 17.1758L478.112 22.0132L441.258 172.843L426.979 173.798C422.08 174.201 420.313 172.703 421.379 168.341L439.785 93.0099L432.403 91.2062L415.841 158.987ZM353.926 119.146L313.996 109.389L340.724 0L358.341 4.30442L350.183 37.6915L354.881 38.8394L363.038 5.45226L380.655 9.75668L353.926 119.146ZM397.548 129.804L357.617 120.048L384.346 10.6586L401.962 14.963L393.804 48.3501L398.502 49.498L406.66 16.1108L424.276 20.4152L397.548 129.804ZM341.557 93.3661L349.715 59.979L345.018 58.8311L336.86 92.2183L341.557 93.3661ZM385.179 104.025L393.337 70.6375L388.639 69.4897L380.481 102.877L385.179 104.025Z" fill="#D8A82D"/>
<path d="M537.001 42.2693L509.049 142.114L485.56 136.375L506.801 34.8903L537.001 42.2693ZM500.068 186.145L473.224 179.586L479.783 152.742L506.627 159.302L500.068 186.145Z" fill="#D8A82D"/>
<path fill-rule="evenodd" clip-rule="evenodd" d="M537.001 262.779C537.001 300.252 416.871 330.63 268.683 330.63C120.495 330.63 0.365234 300.252 0.365234 262.779C0.365234 225.306 120.495 194.929 268.683 194.929C152.858 194.929 58.9634 214.26 58.9634 238.106C58.9634 261.953 152.858 281.284 268.683 281.284C384.508 281.284 478.403 261.953 478.403 238.106C478.403 214.26 384.508 194.929 268.683 194.929C416.871 194.929 537.001 225.306 537.001 262.779Z" fill="#D8A82D"/>
<ellipse cx="265.599" cy="244.275" rx="185.047" ry="37.0093" fill="#9C6D38"/>
<path fill-rule="evenodd" clip-rule="evenodd" d="M268.683 281.284C384.507 281.284 478.402 261.953 478.402 238.106C478.402 214.26 384.507 194.929 268.683 194.929C152.858 194.929 58.9629 214.26 58.9629 238.106C58.9629 261.953 152.858 281.284 268.683 281.284ZM268.548 277.875C367.964 277.875 448.556 263.073 448.556 244.813C448.556 226.552 367.964 211.75 268.548 211.75C169.132 211.75 88.539 226.552 88.539 244.813C88.539 263.073 169.132 277.875 268.548 277.875Z" fill="#F5C622"/>
<g clip-path="url(#clip0_4632_17325)">
<g filter="url(#filter0_d_4632_17325)">
<path d="M221.413 163.875C220.145 165.278 216.568 169.258 216.591 174.513C216.641 181.685 223.332 188.229 229.065 190.762C240.628 195.852 248.954 184.679 275.635 174.233C287.708 169.522 323.706 155.431 343.53 166.241C345.124 167.104 349.707 169.826 356.178 170.377C356.785 170.436 369.813 171.064 375.015 162.955C379.318 156.265 376.762 146.679 374.353 142.506C354.282 107.685 237.916 145.494 221.369 163.884L221.413 163.875Z" fill="#F2A430"/>
<mask id="mask0_4632_17325" style="mask-type:luminance" maskUnits="userSpaceOnUse" x="216" y="128" width="162" height="65">
<path d="M221.415 163.879C220.147 165.282 216.57 169.262 216.593 174.517C216.643 181.689 223.334 188.233 229.067 190.765C240.629 195.856 248.956 184.683 275.637 174.237C287.71 169.525 323.708 155.435 343.532 166.245C345.126 167.108 349.709 169.83 356.18 170.381C356.787 170.44 369.815 171.068 375.017 162.959C379.32 156.269 376.764 146.683 374.355 142.51C354.284 107.689 237.918 145.498 221.371 163.888L221.415 163.879Z" fill="white"/>
</mask>
<g mask="url(#mask0_4632_17325)">
<path d="M232.539 154.734C235.48 153.904 253.724 147.609 251.183 149.272C236.925 158.731 230.384 168.12 231.391 173.266C233.188 182.047 248.836 188.772 254.532 189.116C260.229 189.459 210.64 201.07 210.64 201.07L209.523 161.182L232.539 154.734Z" fill="#F7BF76"/>
</g>
<path d="M221.369 163.884C220.101 165.287 216.568 169.258 216.591 174.513C216.641 181.685 223.332 188.229 229.065 190.762C240.628 195.852 248.954 184.679 275.635 174.233C287.708 169.522 323.706 155.431 343.53 166.241C345.124 167.104 349.707 169.826 356.178 170.377C356.785 170.436 369.813 171.064 375.015 162.955C379.318 156.265 376.762 146.679 374.353 142.506C354.282 107.685 237.916 145.494 221.369 163.884Z" stroke="#171714" stroke-width="6.72225" stroke-miterlimit="10"/>
<path d="M229.224 317.076C229.691 317.347 230.193 317.564 230.765 317.676C233.519 318.393 236.431 317.202 238.568 315.347C240.704 313.492 242.17 311.042 243.688 308.627C255.095 290.603 269.677 274.902 284.18 259.264C308.908 232.567 333.644 205.914 358.372 179.218C360.655 176.738 363.095 173.906 362.913 170.558C362.739 167.025 360.91 162.78 357.513 161.828C350.191 159.804 343.194 159.589 336.278 159.769C308.71 160.516 281.249 165.357 255.051 173.92C248.197 176.192 241.432 178.674 234.774 181.454C231.528 182.805 229.228 183.413 227.766 186.777C226.513 189.595 226.096 192.699 225.705 195.707C222.523 221.288 220.985 247.082 221.091 272.86C221.159 284.144 221.517 295.507 223.57 306.66C224.3 310.673 225.823 315.21 229.224 317.076Z" fill="#FAD22A"/>
<mask id="mask1_4632_17325" style="mask-type:luminance" maskUnits="userSpaceOnUse" x="221" y="159" width="142" height="159">
<path d="M229.255 317.077C229.722 317.348 230.224 317.565 230.796 317.677C233.55 318.394 236.463 317.203 238.599 315.348C240.735 313.493 242.201 311.043 243.719 308.628C255.127 290.604 269.708 274.903 284.211 259.265C308.939 232.568 333.676 205.915 358.404 179.219C360.687 176.739 363.126 173.907 362.944 170.559C362.77 167.026 360.941 162.781 357.544 161.829C350.223 159.805 343.226 159.59 336.31 159.77C308.742 160.517 281.28 165.358 255.083 173.921C248.229 176.193 241.463 178.675 234.805 181.455C231.559 182.806 229.259 183.414 227.797 186.778C226.544 189.596 226.127 192.7 225.736 195.708C222.554 221.289 221.016 247.083 221.122 272.861C221.19 284.145 221.548 295.508 223.601 306.661C224.331 310.674 225.854 315.211 229.255 317.077Z" fill="white"/>
</mask>
<g mask="url(#mask1_4632_17325)">
<path d="M258.69 169.702C258.69 169.702 223.826 203.642 230.784 317.675C237.742 431.708 210.624 310.364 210.624 310.364L217.893 181.801L258.69 169.702Z" fill="#EFEEDF"/>
<path d="M361.606 163.14C341.717 157.374 234.138 293.335 231.537 309.466C228.954 325.456 253.392 316.567 253.392 316.567L382.155 175.036L347.263 155.416" fill="#F6A42B"/>
</g>
<path d="M229.224 317.076C229.691 317.347 230.193 317.564 230.765 317.676C233.519 318.393 236.431 317.202 238.568 315.347C240.704 313.492 242.17 311.042 243.688 308.627C255.095 290.603 269.677 274.902 284.18 259.264C308.908 232.567 333.644 205.914 358.372 179.218C360.655 176.738 363.095 173.906 362.913 170.558C362.739 167.025 360.91 162.78 357.513 161.828C350.191 159.804 343.194 159.589 336.278 159.769C308.71 160.516 281.249 165.357 255.051 173.92C248.197 176.192 241.432 178.674 234.774 181.454C231.528 182.805 229.228 183.413 227.766 186.777C226.513 189.595 226.096 192.699 225.705 195.707C222.523 221.288 220.985 247.082 221.091 272.86C221.159 284.144 221.517 295.507 223.57 306.66C224.3 310.673 225.823 315.21 229.224 317.076Z" stroke="#171714" stroke-width="6.72225" stroke-miterlimit="10"/>
<path d="M227.949 186.783L226.68 196.008C228.186 192.635 230.442 192.036 233.688 190.686C240.347 187.905 247.112 185.423 253.966 183.152C280.154 174.545 307.625 169.747 335.193 169.001C340.193 168.847 345.247 168.956 350.445 169.768C353.664 170.298 356.441 172.246 358.308 174.883C359.466 176.522 360.999 177.306 362.293 173.793C363.205 171.32 362.887 169.097 362.097 167.246C360.605 163.755 356.869 161.592 353.113 160.897C347.307 159.797 342.006 159.601 336.417 159.784C308.85 160.531 281.388 165.373 255.191 173.935C248.336 176.207 241.571 178.689 234.913 181.47C231.667 182.82 229.367 183.428 227.905 186.792L227.828 187.311" fill="#E78030"/>
<path d="M227.949 186.783L226.68 196.008C228.186 192.635 230.442 192.036 233.688 190.686C240.347 187.905 247.112 185.423 253.966 183.152C280.154 174.545 307.625 169.747 335.193 169.001C340.193 168.847 345.247 168.956 350.445 169.768C353.664 170.298 356.441 172.246 358.308 174.883C359.466 176.522 360.999 177.306 362.293 173.793C363.205 171.32 362.887 169.097 362.097 167.246C360.605 163.755 356.869 161.592 353.113 160.897C347.307 159.797 342.006 159.601 336.417 159.784C308.85 160.531 281.388 165.373 255.191 173.935C248.336 176.207 241.571 178.689 234.913 181.47C231.667 182.82 229.367 183.428 227.905 186.792L227.828 187.311" stroke="#171714" stroke-width="6.72225" stroke-miterlimit="10"/>
<path d="M377.259 149.227C380.744 166.262 365.297 175.05 362.3 167.109C358.44 156.966 349.142 164.952 347.184 155.381C345.225 145.81 350.352 136.664 358.65 134.966C366.948 133.268 375.256 139.665 377.215 149.236L377.259 149.227Z" fill="#FFC686" stroke="#171714" stroke-width="6.72225" stroke-miterlimit="10"/>
<path d="M369.957 150.078C371.529 157.762 366.057 162.541 364.688 158.979C362.927 154.399 356.259 156.907 355.378 152.604C354.498 148.301 357.821 144.419 361.553 143.656C365.284 142.892 369.077 145.776 369.957 150.078Z" fill="#EB9D69"/>
<path d="M244.823 282.863C235.512 274.247 234.499 257.895 247.523 243.749C260.556 229.646 285.367 227.497 282.376 238.813C278.383 253.948 294.286 260.803 281.297 274.896C268.308 288.99 254.178 291.47 244.823 282.863Z" fill="#DD3E3D" stroke="#171714" stroke-width="6.72225" stroke-miterlimit="10"/>
<path d="M220.354 230.878C224.281 236.433 234.632 235.825 243.534 229.474C252.435 223.124 256.427 213.571 252.5 208.016C248.573 202.461 233.281 206.642 224.414 212.939C215.548 219.237 216.384 225.332 220.354 230.878Z" fill="#DD3E3D" stroke="#171714" stroke-width="6.18447" stroke-miterlimit="10"/>
<path d="M298.679 207.937C301.818 212.327 310.036 211.835 317.106 206.82C324.176 201.805 327.324 194.162 324.228 189.764C321.133 185.365 308.957 188.68 301.93 193.686C294.904 198.692 295.539 203.548 298.679 207.937Z" fill="#DD3E3D" stroke="#171714" stroke-width="4.4815" stroke-miterlimit="10"/>
<path d="M284.004 220.689C285.348 222.564 288.425 222.621 290.895 220.835C293.366 219.048 294.32 216.108 293.028 214.268C291.737 212.429 287.258 213.345 284.735 215.096C282.212 216.848 282.66 218.815 284.004 220.689Z" fill="#009133"/>
<path d="M253.587 203.034C254.232 203.954 256.796 203.292 259.31 201.497C261.825 199.702 263.301 197.524 262.611 196.613C261.921 195.702 258.009 197.372 255.529 199.115C253.05 200.857 252.932 202.07 253.587 203.034Z" fill="#009133"/>
<path d="M233.093 252.287C233.738 253.207 236.302 252.545 238.816 250.75C241.331 248.955 242.806 246.777 242.117 245.866C241.427 244.955 237.515 246.625 235.035 248.367C232.556 250.11 232.438 251.323 233.093 252.287Z" fill="#009133"/>
<path d="M335.777 139.649C338.056 139.182 339.731 137.959 339.517 136.916C339.304 135.874 337.283 135.406 335.004 135.873C332.725 136.339 331.05 137.563 331.263 138.605C331.477 139.648 333.497 140.115 335.777 139.649Z" fill="#171714"/>
<path d="M324.47 143.925C326.749 143.459 328.424 142.235 328.211 141.193C327.997 140.15 325.977 139.683 323.697 140.149C321.418 140.616 319.743 141.839 319.957 142.882C320.17 143.924 322.191 144.391 324.47 143.925Z" fill="#171714"/>
</g>
</g>
<path fill-rule="evenodd" clip-rule="evenodd" d="M367.377 276.211C337.963 279.447 304.364 281.281 268.685 281.281C218.376 281.281 172.205 277.634 136.068 271.554V267.194C168.966 273.759 216.142 277.873 268.55 277.873C305.048 277.873 339.009 275.877 367.377 272.449V276.211Z" fill="#F5C622"/>
<path fill-rule="evenodd" clip-rule="evenodd" d="M355.039 327.036C327.94 329.364 298.895 330.627 268.683 330.627C230.284 330.627 193.769 328.587 160.74 324.912V275.13C192.274 279.035 229.205 281.281 268.683 281.281C299.468 281.281 328.704 279.915 355.039 277.462V327.036Z" fill="#D8A82D"/>
<defs>
<filter id="filter0_d_4632_17325" x="210.393" y="122.09" width="196.27" height="224.696" filterUnits="userSpaceOnUse" color-interpolation-filters="sRGB">
<feFlood flood-opacity="0" result="BackgroundImageFix"/>
<feColorMatrix in="SourceAlpha" type="matrix" values="0 0 0 0 0 0 0 0 0 0 0 0 0 0 0 0 0 0 127 0" result="hardAlpha"/>
<feOffset dx="11.3487" dy="11.3487"/>
<feGaussianBlur stdDeviation="7.09295"/>
<feComposite in2="hardAlpha" operator="out"/>
<feColorMatrix type="matrix" values="0 0 0 0 0 0 0 0 0 0 0 0 0 0 0 0 0 0 0.25 0"/>
<feBlend mode="normal" in2="BackgroundImageFix" result="effect1_dropShadow_4632_17325"/>
<feBlend mode="normal" in="SourceGraphic" in2="effect1_dropShadow_4632_17325" result="shape"/>
</filter>
<clipPath id="clip0_4632_17325">
<rect x="132.982" y="111.791" width="277.57" height="200.467" rx="100.234" transform="rotate(-11.5646 132.982 111.791)" fill="white"/>
</clipPath>
</defs>
</svg>
